AnekLatin-ExpandedMedium.ufo
<glyph name="colon" format="2">
  <advance width="517"/>
  <unicode hex="003A"/>
  <outline>
    <contour>
      <point x="258" y="-24" type="curve" smooth="yes"/>
      <point x="353" y="-24"/>
      <point x="398" y="23"/>
      <point x="398" y="100" type="curve" smooth="yes"/>
      <point x="398" y="104" type="line" smooth="yes"/>
      <point x="398" y="181"/>
      <point x="353" y="228"/>
      <point x="258" y="228" type="curve" smooth="yes"/>
      <point x="165" y="228"/>
      <point x="119" y="181"/>
      <point x="119" y="104" type="curve" smooth="yes"/>
      <point x="119" y="100" type="line" smooth="yes"/>
      <point x="119" y="23"/>
      <point x="165" y="-24"/>
    </contour>
    <contour>
      <point x="258" y="668" type="curve" smooth="yes"/>
      <point x="353" y="668"/>
      <point x="398" y="715"/>
      <point x="398" y="792" type="curve" smooth="yes"/>
      <point x="398" y="796" type="line" smooth="yes"/>
      <point x="398" y="873"/>
      <point x="353" y="920"/>
      <point x="258" y="920" type="curve" smooth="yes"/>
      <point x="165" y="920"/>
      <point x="119" y="873"/>
      <point x="119" y="796" type="curve" smooth="yes"/>
      <point x="119" y="792" type="line" smooth="yes"/>
      <point x="119" y="715"/>
      <point x="165" y="668"/>
    </contour>
  </outline>
</glyph>
<glyph name="semicolon" format="2">
  <advance width="526"/>
  <unicode hex="003B"/>
  <outline>
    <contour>
      <point x="374" y="291" type="curve"/>
      <point x="164" y="291" type="line"/>
      <point x="169" y="251"/>
      <point x="171" y="213"/>
      <point x="171" y="170" type="curve" smooth="yes"/>
      <point x="171" y="10"/>
      <point x="138" y="-115"/>
      <point x="56" y="-238" type="curve"/>
      <point x="217" y="-279" type="line"/>
      <point x="339" y="-142"/>
      <point x="384" y="2"/>
      <point x="384" y="178" type="curve" smooth="yes"/>
      <point x="384" y="222"/>
      <point x="379" y="264"/>
    </contour>
    <contour>
      <point x="267" y="668" type="curve" smooth="yes"/>
      <point x="362" y="668"/>
      <point x="407" y="715"/>
      <point x="407" y="792" type="curve" smooth="yes"/>
      <point x="407" y="796" type="line" smooth="yes"/>
      <point x="407" y="873"/>
      <point x="362" y="920"/>
      <point x="267" y="920" type="curve" smooth="yes"/>
      <point x="174" y="920"/>
      <point x="128" y="873"/>
      <point x="128" y="796" type="curve" smooth="yes"/>
      <point x="128" y="792" type="line" smooth="yes"/>
      <point x="128" y="715"/>
      <point x="174" y="668"/>
    </contour>
  </outline>
</glyph>
<glyph name="dcroat" format="2">
  <advance width="1464"/>
  <unicode hex="0111"/>
  <anchor x="732" y="0" name="bottom"/>
  <anchor x="732" y="479" name="center"/>
  <anchor x="732" y="1319" name="top"/>
  <anchor x="1476" y="1319" name="topright"/>
  <outline>
    <contour>
      <point x="610" y="1073" type="line"/>
      <point x="1464" y="1073" type="line"/>
      <point x="1464" y="1199" type="line"/>
      <point x="610" y="1199" type="line"/>
    </contour>
    <component base="d"/>
  </outline>
</glyph>
<glyph name="eogonek" format="2">
  <advance width="1339"/>
  <unicode hex="0119"/>
  <anchor x="680" y="0" name="bottom"/>
  <anchor x="1081" y="5" name="ogonek"/>
  <anchor x="680" y="958" name="top"/>
  <outline>
    <contour>
      <point x="1010" y="-397" type="curve" smooth="yes"/>
      <point x="1072" y="-397"/>
      <point x="1128" y="-387"/>
      <point x="1175" y="-367" type="curve"/>
      <point x="1201" y="-223" type="line"/>
      <point x="1154" y="-239"/>
      <point x="1109" y="-247"/>
      <point x="1064" y="-247" type="curve" smooth="yes"/>
      <point x="978" y="-247"/>
      <point x="927" y="-220"/>
      <point x="927" y="-151" type="curve" smooth="yes"/>
      <point x="927" y="-150" type="line" smooth="yes"/>
      <point x="927" y="-73"/>
      <point x="974" y="-22"/>
      <point x="1054" y="20" type="curve"/>
      <point x="1054" y="42" type="line"/>
      <point x="899" y="3" type="line"/>
      <point x="899" y="-25" type="line"/>
      <point x="810" y="-69"/>
      <point x="761" y="-130"/>
      <point x="761" y="-224" type="curve" smooth="yes"/>
      <point x="761" y="-225" type="line" smooth="yes"/>
      <point x="761" y="-341"/>
      <point x="858" y="-397"/>
    </contour>
    <component base="e"/>
  </outline>
</glyph>
<glyph name="Hbar" format="2">
  <advance width="1688"/>
  <unicode hex="0126"/>
  <anchor x="844" y="0" name="bottom"/>
  <anchor x="844" y="639" name="center"/>
  <anchor x="844" y="1278" name="top"/>
  <anchor x="20" y="1278" name="topleft"/>
  <outline>
    <contour>
      <point x="31" y="941" type="line"/>
      <point x="1658" y="941" type="line"/>
      <point x="1658" y="1091" type="line"/>
      <point x="31" y="1091" type="line"/>
    </contour>
    <component base="H"/>
  </outline>
</glyph>
<glyph name="hbar" format="2">
  <advance width="1413"/>
  <unicode hex="0127"/>
  <anchor x="707" y="0" name="bottom"/>
  <anchor x="707" y="646" name="center"/>
  <anchor x="268" y="1319" name="top"/>
  <outline>
    <contour>
      <point x="0" y="1073" type="line"/>
      <point x="828" y="1073" type="line"/>
      <point x="828" y="1199" type="line"/>
      <point x="0" y="1199" type="line"/>
    </contour>
    <component base="h"/>
  </outline>
</glyph>
<glyph name="kgreenlandic" format="2">
  <advance width="1328"/>
  <unicode hex="0138"/>
  <anchor x="664" y="0" name="bottom"/>
  <anchor x="664" y="958" name="top"/>
  <outline>
    <contour>
      <point x="1016" y="0" type="line"/>
      <point x="1301" y="0" type="line"/>
      <point x="654" y="510" type="line"/>
      <point x="654" y="465" type="line"/>
      <point x="1269" y="958" type="line"/>
      <point x="991" y="958" type="line"/>
      <point x="493" y="564" type="line"/>
      <point x="337" y="564" type="line"/>
      <point x="337" y="399" type="line"/>
      <point x="493" y="399" type="line"/>
    </contour>
    <contour>
      <point x="160" y="0" type="line"/>
      <point x="378" y="0" type="line"/>
      <point x="378" y="958" type="line"/>
      <point x="160" y="958" type="line"/>
    </contour>
  </outline>
</glyph>
<glyph name="Lslash" format="2">
  <advance width="1386"/>
  <unicode hex="0141"/>
  <anchor x="755" y="0" name="bottom"/>
  <anchor x="706" y="639" name="center"/>
  <anchor x="323" y="1278" name="top"/>
  <anchor x="930" y="1278" name="topright"/>
  <outline>
    <contour>
      <point x="913" y="991" type="line"/>
      <point x="20" y="702" type="line"/>
      <point x="20" y="526" type="line"/>
      <point x="913" y="815" type="line"/>
    </contour>
    <component base="L" xOffset="26"/>
  </outline>
</glyph>
<glyph name="lslash" format="2">
  <advance width="575"/>
  <unicode hex="0142"/>
  <anchor x="288" y="0" name="bottom"/>
  <anchor x="288" y="646" name="center"/>
  <anchor x="288" y="1319" name="top"/>
  <anchor x="569" y="1319" name="topright"/>
  <outline>
    <contour>
      <point x="-6" y="468" type="line"/>
      <point x="581" y="803" type="line"/>
      <point x="581" y="975" type="line"/>
      <point x="-6" y="640" type="line"/>
    </contour>
    <component base="l" xOffset="17"/>
  </outline>
</glyph>
<glyph name="Eng" format="2">
  <advance width="1688"/>
  <unicode hex="014A"/>
  <outline>
    <contour>
      <point x="185" y="0" type="line"/>
      <point x="408" y="0" type="line"/>
      <point x="408" y="530" type="line"/>
      <point x="400" y="1078" type="line"/>
      <point x="418" y="1078" type="line"/>
      <point x="1191" y="0" type="line"/>
      <point x="1449" y="0" type="line"/>
      <point x="1503" y="80" type="line"/>
      <point x="1503" y="1278" type="line"/>
      <point x="1281" y="1278" type="line"/>
      <point x="1281" y="725" type="line"/>
      <point x="1289" y="218" type="line"/>
      <point x="1271" y="218" type="line"/>
      <point x="510" y="1278" type="line"/>
      <point x="185" y="1278" type="line"/>
    </contour>
    <contour>
      <point x="1120" y="-358" type="curve" smooth="yes"/>
      <point x="1401" y="-358"/>
      <point x="1503" y="-202"/>
      <point x="1503" y="51" type="curve" smooth="yes"/>
      <point x="1503" y="148" type="line"/>
      <point x="1288" y="148" type="line"/>
      <point x="1288" y="58" type="line" smooth="yes"/>
      <point x="1288" y="-101"/>
      <point x="1240" y="-186"/>
      <point x="1080" y="-186" type="curve" smooth="yes"/>
      <point x="1021" y="-186"/>
      <point x="965" y="-175"/>
      <point x="915" y="-157" type="curve"/>
      <point x="933" y="-329" type="line"/>
      <point x="979" y="-345"/>
      <point x="1046" y="-358"/>
    </contour>
  </outline>
</glyph>
<glyph name="eng" format="2">
  <advance width="1412"/>
  <unicode hex="014B"/>
  <outline>
    <contour>
      <point x="1051" y="100" type="line"/>
      <point x="1269" y="100" type="line"/>
      <point x="1269" y="525" type="line" smooth="yes"/>
      <point x="1269" y="817"/>
      <point x="1142" y="987"/>
      <point x="825" y="987" type="curve" smooth="yes"/>
      <point x="565" y="987"/>
      <point x="425" y="860"/>
      <point x="380" y="714" type="curve"/>
      <point x="338" y="714" type="line"/>
      <point x="369" y="549" type="line"/>
      <point x="408" y="693"/>
      <point x="535" y="807"/>
      <point x="747" y="807" type="curve" smooth="yes"/>
      <point x="975" y="807"/>
      <point x="1051" y="679"/>
      <point x="1051" y="503" type="curve" smooth="yes"/>
    </contour>
    <contour>
      <point x="160" y="0" type="line"/>
      <point x="378" y="0" type="line"/>
      <point x="378" y="652" type="line"/>
      <point x="369" y="679" type="line"/>
      <point x="378" y="958" type="line"/>
      <point x="160" y="958" type="line"/>
    </contour>
    <component base="jbottom" xOffset="843"/>
  </outline>
</glyph>
<glyph name="tcaron" format="2">
  <advance width="1086"/>
  <unicode hex="0165"/>
  <anchor x="593" y="0" name="bottom"/>
  <anchor x="544" y="479" name="center"/>
  <anchor x="323" y="1203" name="top"/>
  <anchor x="802" y="1416" name="topright"/>
  <outline>
    <contour>
      <point x="975" y="1416" type="curve"/>
      <point x="802" y="1416" type="line"/>
      <point x="806" y="1388"/>
      <point x="808" y="1361"/>
      <point x="808" y="1332" type="curve" smooth="yes"/>
      <point x="808" y="1228"/>
      <point x="787" y="1144"/>
      <point x="732" y="1065" type="curve"/>
      <point x="863" y="1035" type="line"/>
      <point x="949" y="1125"/>
      <point x="982" y="1220"/>
      <point x="982" y="1336" type="curve" smooth="yes"/>
      <point x="982" y="1368"/>
      <point x="977" y="1397"/>
    </contour>
    <component base="t"/>
  </outline>
</glyph>
<glyph name="Tbar" format="2">
  <advance width="1489"/>
  <unicode hex="0166"/>
  <anchor x="745" y="0" name="bottom"/>
  <anchor x="745" y="639" name="center"/>
  <anchor x="745" y="1278" name="top"/>
  <outline>
    <contour>
      <point x="223" y="509" type="line"/>
      <point x="1267" y="508" type="line"/>
      <point x="1267" y="672" type="line"/>
      <point x="223" y="673" type="line"/>
    </contour>
    <component base="T"/>
  </outline>
</glyph>
<glyph name="tbar" format="2">
  <advance width="1115"/>
  <unicode hex="0167"/>
  <outline>
    <contour>
      <point x="660" y="-27" type="curve" smooth="yes"/>
      <point x="799" y="-27"/>
      <point x="922" y="-2"/>
      <point x="1014" y="40" type="curve"/>
      <point x="1036" y="225" type="line"/>
      <point x="943" y="180"/>
      <point x="829" y="154"/>
      <point x="712" y="154" type="curve" smooth="yes"/>
      <point x="517" y="154"/>
      <point x="448" y="231"/>
      <point x="448" y="395" type="curve" smooth="yes"/>
      <point x="448" y="838" type="line"/>
      <point x="232" y="838" type="line"/>
      <point x="232" y="372" type="line" smooth="yes"/>
      <point x="232" y="105"/>
      <point x="342" y="-27"/>
    </contour>
    <contour>
      <point x="53" y="427" type="line"/>
      <point x="978" y="427" type="line"/>
      <point x="978" y="577" type="line"/>
      <point x="53" y="577" type="line"/>
    </contour>
    <contour>
      <point x="28" y="774" type="line"/>
      <point x="1011" y="774" type="line"/>
      <point x="1034" y="942" type="line"/>
      <point x="28" y="942" type="line"/>
    </contour>
    <contour>
      <point x="235" y="922" type="line"/>
      <point x="442" y="922" type="line"/>
      <point x="450" y="1231" type="line"/>
      <point x="234" y="1210" type="line"/>
    </contour>
  </outline>
</glyph>
<glyph name="Uogonek" format="2">
  <advance width="1661"/>
  <unicode hex="0172"/>
  <anchor x="831" y="0" name="bottom"/>
  <anchor x="1168" y="5" name="ogonek"/>
  <anchor x="831" y="1278" name="top"/>
  <anchor x="1626" y="1278" name="topright"/>
  <outline>
    <contour>
      <point x="1046" y="-397" type="curve" smooth="yes"/>
      <point x="1109" y="-397"/>
      <point x="1167" y="-388"/>
      <point x="1215" y="-369" type="curve"/>
      <point x="1241" y="-224" type="line"/>
      <point x="1194" y="-241"/>
      <point x="1148" y="-247"/>
      <point x="1102" y="-247" type="curve" smooth="yes"/>
      <point x="1013" y="-247"/>
      <point x="961" y="-222"/>
      <point x="961" y="-159" type="curve" smooth="yes"/>
      <point x="961" y="-158" type="line" smooth="yes"/>
      <point x="961" y="-85"/>
      <point x="1023" y="-35"/>
      <point x="1128" y="11" type="curve"/>
      <point x="1118" y="12" type="line"/>
      <point x="969" y="-17" type="line"/>
      <point x="969" y="-33" type="line"/>
      <point x="856" y="-67"/>
      <point x="795" y="-128"/>
      <point x="795" y="-222" type="curve" smooth="yes"/>
      <point x="795" y="-224" type="line" smooth="yes"/>
      <point x="795" y="-340"/>
      <point x="893" y="-397"/>
    </contour>
    <component base="U"/>
  </outline>
</glyph>
<glyph name="Schwa" format="2">
  <advance width="1625"/>
  <unicode hex="018F"/>
  <anchor x="813" y="0" name="bottom"/>
  <anchor x="813" y="1278" name="top"/>
  <outline>
    <contour>
      <point x="813" y="-33" type="curve" smooth="yes"/>
      <point x="1263" y="-33"/>
      <point x="1513" y="209"/>
      <point x="1513" y="615" type="curve"/>
      <point x="1513" y="634" type="line"/>
      <point x="1513" y="1060"/>
      <point x="1258" y="1311"/>
      <point x="777" y="1311" type="curve" smooth="yes"/>
      <point x="500" y="1311"/>
      <point x="301" y="1242"/>
      <point x="172" y="1170" type="curve"/>
      <point x="150" y="976" type="line"/>
      <point x="300" y="1056"/>
      <point x="491" y="1126"/>
      <point x="749" y="1126" type="curve" smooth="yes"/>
      <point x="1103" y="1126"/>
      <point x="1281" y="955"/>
      <point x="1281" y="634" type="curve" smooth="yes"/>
      <point x="1281" y="600" type="line" smooth="yes"/>
      <point x="1281" y="311"/>
      <point x="1125" y="150"/>
      <point x="812" y="150" type="curve" smooth="yes"/>
      <point x="509" y="150"/>
      <point x="336" y="294"/>
      <point x="336" y="575" type="curve"/>
      <point x="336" y="585" type="line"/>
      <point x="279" y="543" type="line"/>
      <point x="1371" y="541" type="line"/>
      <point x="1371" y="717" type="line"/>
      <point x="124" y="717" type="line"/>
      <point x="118" y="680"/>
      <point x="112" y="630"/>
      <point x="112" y="582" type="curve"/>
      <point x="112" y="576" type="line"/>
      <point x="112" y="196"/>
      <point x="367" y="-33"/>
    </contour>
  </outline>
</glyph>
<glyph name="florin" format="2">
  <advance width="1111"/>
  <unicode hex="0192"/>
  <outline>
    <contour>
      <point x="53" y="725" type="line"/>
      <point x="987" y="725" type="line"/>
      <point x="999" y="892" type="line"/>
      <point x="64" y="892" type="line"/>
    </contour>
    <contour>
      <point x="1076" y="1135" type="curve"/>
      <point x="1064" y="1294" type="line"/>
      <point x="961" y="1329"/>
      <point x="849" y="1352"/>
      <point x="711" y="1352" type="curve" smooth="yes"/>
      <point x="401" y="1352"/>
      <point x="289" y="1233"/>
      <point x="269" y="959" type="curve" smooth="yes"/>
      <point x="173" y="-338" type="line"/>
      <point x="379" y="-338" type="line"/>
      <point x="474" y="958" type="line" smooth="yes"/>
      <point x="486" y="1122"/>
      <point x="554" y="1189"/>
      <point x="755" y="1189" type="curve" smooth="yes"/>
      <point x="873" y="1189"/>
      <point x="976" y="1169"/>
    </contour>
  </outline>
</glyph>
<glyph name="Oogonek" format="2">
  <advance width="1694"/>
  <unicode hex="01EA"/>
  <anchor x="847" y="0" name="bottom"/>
  <anchor x="847" y="639" name="center"/>
  <anchor x="1202" y="5" name="ogonek"/>
  <anchor x="847" y="1278" name="top"/>
  <anchor x="20" y="1278" name="topleft"/>
  <anchor x="1420" y="1278" name="topright"/>
  <outline>
    <contour>
      <point x="1067" y="-397" type="curve" smooth="yes"/>
      <point x="1130" y="-397"/>
      <point x="1188" y="-388"/>
      <point x="1236" y="-369" type="curve"/>
      <point x="1262" y="-224" type="line"/>
      <point x="1215" y="-241"/>
      <point x="1169" y="-247"/>
      <point x="1123" y="-247" type="curve" smooth="yes"/>
      <point x="1034" y="-247"/>
      <point x="982" y="-222"/>
      <point x="982" y="-159" type="curve" smooth="yes"/>
      <point x="982" y="-158" type="line" smooth="yes"/>
      <point x="982" y="-85"/>
      <point x="1044" y="-35"/>
      <point x="1149" y="11" type="curve"/>
      <point x="1139" y="12" type="line"/>
      <point x="990" y="-17" type="line"/>
      <point x="990" y="-33" type="line"/>
      <point x="877" y="-67"/>
      <point x="816" y="-128"/>
      <point x="816" y="-222" type="curve" smooth="yes"/>
      <point x="816" y="-224" type="line" smooth="yes"/>
      <point x="816" y="-340"/>
      <point x="914" y="-397"/>
    </contour>
    <component base="O"/>
  </outline>
</glyph>
<glyph name="oogonek" format="2">
  <advance width="1409"/>
  <unicode hex="01EB"/>
  <anchor x="705" y="0" name="bottom"/>
  <anchor x="705" y="479" name="center"/>
  <anchor x="1017" y="5" name="ogonek"/>
  <anchor x="705" y="958" name="top"/>
  <anchor x="1251" y="958" name="topright"/>
  <outline>
    <contour>
      <point x="902" y="-397" type="curve" smooth="yes"/>
      <point x="964" y="-397"/>
      <point x="1020" y="-387"/>
      <point x="1067" y="-367" type="curve"/>
      <point x="1093" y="-223" type="line"/>
      <point x="1046" y="-239"/>
      <point x="1001" y="-247"/>
      <point x="956" y="-247" type="curve" smooth="yes"/>
      <point x="870" y="-247"/>
      <point x="819" y="-221"/>
      <point x="819" y="-155" type="curve" smooth="yes"/>
      <point x="819" y="-154" type="line" smooth="yes"/>
      <point x="819" y="-82"/>
      <point x="873" y="-35"/>
      <point x="960" y="4" type="curve"/>
      <point x="960" y="26" type="line"/>
      <point x="805" y="-6" type="line"/>
      <point x="805" y="-34" type="line"/>
      <point x="709" y="-72"/>
      <point x="653" y="-134"/>
      <point x="653" y="-224" type="curve" smooth="yes"/>
      <point x="653" y="-225" type="line" smooth="yes"/>
      <point x="653" y="-341"/>
      <point x="750" y="-397"/>
    </contour>
    <component base="o"/>
  </outline>
</glyph>
<glyph name="Odieresismacron" format="2">
  <advance width="1694"/>
  <unicode hex="022A"/>
  <anchor x="847" y="0" name="bottom"/>
  <anchor x="847" y="639" name="center"/>
  <anchor x="1202" y="5" name="ogonek"/>
  <anchor x="847" y="1626" name="top"/>
  <anchor x="20" y="1278" name="topleft"/>
  <anchor x="1420" y="1278" name="topright"/>
  <outline>
    <contour>
      <point x="494" y="1815" type="line"/>
      <point x="1200" y="1815" type="line"/>
      <point x="1200" y="1961" type="line"/>
      <point x="494" y="1961" type="line"/>
    </contour>
    <component base="O"/>
    <component base="dieresiscomb.case" xOffset="434"/>
  </outline>
</glyph>
<glyph name="odieresismacron" format="2">
  <advance width="1409"/>
  <unicode hex="022B"/>
  <anchor x="705" y="1679.86" name="top"/>
  <anchor x="705" y="0" name="bottom"/>
  <anchor x="705" y="479" name="center"/>
  <anchor x="1017" y="5" name="ogonek"/>
  <anchor x="1251" y="958" name="topright"/>
  <outline>
    <contour>
      <point x="352" y="1528" type="line"/>
      <point x="1058" y="1528" type="line"/>
      <point x="1058" y="1671" type="line"/>
      <point x="352" y="1671" type="line"/>
    </contour>
    <component base="o"/>
    <component base="dieresiscomb" xOffset="292"/>
  </outline>
</glyph>
<glyph name="Otildemacron" format="2">
  <advance width="1694"/>
  <unicode hex="022C"/>
  <anchor x="847" y="1993" name="top"/>
  <anchor x="847" y="0" name="bottom"/>
  <anchor x="847" y="639" name="center"/>
  <anchor x="1202" y="5" name="ogonek"/>
  <anchor x="20" y="1278" name="topleft"/>
  <anchor x="1420" y="1278" name="topright"/>
  <outline>
    <contour>
      <point x="494" y="1841" type="line"/>
      <point x="1200" y="1841" type="line"/>
      <point x="1200" y="1987" type="line"/>
      <point x="494" y="1987" type="line"/>
    </contour>
    <component base="O"/>
    <component base="tildecomb.case" xOffset="381"/>
  </outline>
</glyph>
<glyph name="otildemacron" format="2">
  <advance width="1409"/>
  <unicode hex="022D"/>
  <anchor x="705" y="1684.86" name="top"/>
  <anchor x="705" y="0" name="bottom"/>
  <anchor x="705" y="479" name="center"/>
  <anchor x="1017" y="5" name="ogonek"/>
  <anchor x="1251" y="958" name="topright"/>
  <outline>
    <contour>
      <point x="352" y="1533" type="line"/>
      <point x="1058" y="1533" type="line"/>
      <point x="1058" y="1676" type="line"/>
      <point x="352" y="1676" type="line"/>
    </contour>
    <component base="o"/>
    <component base="tildecomb" xOffset="250"/>
  </outline>
</glyph>
<glyph name="Odotaccentmacron" format="2">
  <advance width="1694"/>
  <unicode hex="0230"/>
  <anchor x="847" y="0" name="bottom"/>
  <anchor x="847" y="639" name="center"/>
  <anchor x="1202" y="5" name="ogonek"/>
  <anchor x="846" y="1641" name="top"/>
  <anchor x="20" y="1278" name="topleft"/>
  <anchor x="1420" y="1278" name="topright"/>
  <outline>
    <contour>
      <point x="494" y="1829" type="line"/>
      <point x="1200" y="1829" type="line"/>
      <point x="1200" y="1975" type="line"/>
      <point x="494" y="1975" type="line"/>
    </contour>
    <component base="O"/>
    <component base="dotaccentcomb.case" xOffset="617"/>
  </outline>
</glyph>
<glyph name="odotaccentmacron" format="2">
  <advance width="1409"/>
  <unicode hex="0231"/>
  <anchor x="705" y="1682.86" name="top"/>
  <anchor x="705" y="0" name="bottom"/>
  <anchor x="705" y="479" name="center"/>
  <anchor x="1017" y="5" name="ogonek"/>
  <anchor x="1251" y="958" name="topright"/>
  <outline>
    <contour>
      <point x="352" y="1531" type="line"/>
      <point x="1058" y="1531" type="line"/>
      <point x="1058" y="1674" type="line"/>
      <point x="352" y="1674" type="line"/>
    </contour>
    <component base="o"/>
    <component base="dotaccentcomb" xOffset="475"/>
  </outline>
</glyph>
<glyph name="jdotless" format="2">
  <advance width="587"/>
  <unicode hex="0237"/>
  <anchor x="294" y="-338" name="bottom"/>
  <anchor x="294" y="958" name="top"/>
  <outline>
    <contour>
      <point x="208" y="172" type="line"/>
      <point x="425" y="172" type="line"/>
      <point x="425" y="958" type="line"/>
      <point x="208" y="958" type="line"/>
    </contour>
    <component base="jbottom"/>
  </outline>
</glyph>
<glyph name="schwa" format="2">
  <advance width="1341"/>
  <unicode hex="0259"/>
  <outline>
    <contour>
      <point x="667" y="-32" type="curve" smooth="yes"/>
      <point x="1036" y="-32"/>
      <point x="1238" y="152"/>
      <point x="1238" y="467" type="curve"/>
      <point x="1238" y="490" type="line"/>
      <point x="1238" y="806"/>
      <point x="1038" y="990"/>
      <point x="640" y="990" type="curve" smooth="yes"/>
      <point x="430" y="990"/>
      <point x="281" y="949"/>
      <point x="140" y="874" type="curve"/>
      <point x="117" y="692" type="line"/>
      <point x="279" y="776"/>
      <point x="431" y="812"/>
      <point x="607" y="812" type="curve" smooth="yes"/>
      <point x="920" y="812"/>
      <point x="1021" y="680"/>
      <point x="1021" y="514" type="curve" smooth="yes"/>
      <point x="1021" y="480" type="line"/>
      <point x="1021" y="464" type="line"/>
      <point x="1021" y="438" type="line" smooth="yes"/>
      <point x="1021" y="253"/>
      <point x="903" y="139"/>
      <point x="667" y="139" type="curve" smooth="yes"/>
      <point x="426" y="139"/>
      <point x="304" y="248"/>
      <point x="304" y="431" type="curve" smooth="yes"/>
      <point x="304" y="471"/>
      <point x="306" y="518"/>
      <point x="311" y="554" type="curve"/>
      <point x="107" y="554" type="line"/>
      <point x="101" y="524"/>
      <point x="96" y="483"/>
      <point x="96" y="445" type="curve" smooth="yes"/>
      <point x="96" y="439" type="line" smooth="yes"/>
      <point x="96" y="155"/>
      <point x="288" y="-32"/>
    </contour>
    <contour>
      <point x="148" y="392" type="line"/>
      <point x="1139" y="392" type="line"/>
      <point x="1139" y="554" type="line"/>
      <point x="148" y="554" type="line"/>
    </contour>
  </outline>
</glyph>
<glyph name="primemod" format="2">
  <advance width="437"/>
  <unicode hex="02B9"/>
  <outline>
    <contour>
      <point x="296" y="848" type="line"/>
      <point x="318" y="1319" type="line"/>
      <point x="119" y="1319" type="line"/>
      <point x="140" y="848" type="line"/>
    </contour>
  </outline>
</glyph>
<glyph name="doubleprimemod" format="2">
  <advance width="834"/>
  <unicode hex="02BA"/>
  <outline>
    <contour>
      <point x="537" y="848" type="line"/>
      <point x="693" y="848" type="line"/>
      <point x="715" y="1319" type="line"/>
      <point x="516" y="1319" type="line"/>
    </contour>
    <contour>
      <point x="140" y="848" type="line"/>
      <point x="296" y="848" type="line"/>
      <point x="318" y="1319" type="line"/>
      <point x="119" y="1319" type="line"/>
    </contour>
  </outline>
</glyph>
<glyph name="commaturnedmod" format="2">
  <advance width="465"/>
  <unicode hex="02BB"/>
  <anchor x="233" y="958" name="_top"/>
  <anchor x="233" y="1347" name="top"/>
  <outline>
    <contour>
      <point x="133" y="1095" type="curve"/>
      <point x="325" y="1095" type="line"/>
      <point x="322" y="1122"/>
      <point x="320" y="1147"/>
      <point x="320" y="1176" type="curve" smooth="yes"/>
      <point x="320" y="1288"/>
      <point x="343" y="1375"/>
      <point x="397" y="1461" type="curve"/>
      <point x="250" y="1498" type="line"/>
      <point x="161" y="1400"/>
      <point x="127" y="1300"/>
      <point x="127" y="1174" type="curve" smooth="yes"/>
      <point x="127" y="1146"/>
      <point x="130" y="1116"/>
    </contour>
  </outline>
</glyph>
<glyph name="apostrophemod" format="2">
  <advance width="464"/>
  <unicode hex="02BC"/>
  <outline>
    <contour>
      <point x="363" y="1278" type="curve"/>
      <point x="175" y="1278" type="line"/>
      <point x="180" y="1243"/>
      <point x="182" y="1210"/>
      <point x="182" y="1173" type="curve" smooth="yes"/>
      <point x="182" y="1043"/>
      <point x="159" y="939"/>
      <point x="100" y="840" type="curve"/>
      <point x="242" y="803" type="line"/>
      <point x="335" y="915"/>
      <point x="371" y="1034"/>
      <point x="371" y="1179" type="curve" smooth="yes"/>
      <point x="371" y="1218"/>
      <point x="366" y="1255"/>
    </contour>
  </outline>
</glyph>
<glyph name="ringhalfright" format="2">
  <advance width="426"/>
  <unicode hex="02BE"/>
  <anchor x="100" y="958" name="_top"/>
  <anchor x="100" y="1413" name="top"/>
  <outline>
    <contour>
      <point x="100" y="1341" type="line"/>
      <point x="164" y="1341"/>
      <point x="198" y="1313"/>
      <point x="198" y="1262" type="curve" smooth="yes"/>
      <point x="198" y="1259" type="line" smooth="yes"/>
      <point x="198" y="1208"/>
      <point x="164" y="1179"/>
      <point x="100" y="1179" type="curve"/>
      <point x="100" y="1075" type="line"/>
      <point x="252" y="1075"/>
      <point x="326" y="1147"/>
      <point x="326" y="1258" type="curve" smooth="yes"/>
      <point x="326" y="1262" type="line" smooth="yes"/>
      <point x="326" y="1374"/>
      <point x="252" y="1445"/>
      <point x="100" y="1445" type="curve"/>
    </contour>
  </outline>
</glyph>
<glyph name="ringhalfleft" format="2">
  <advance width="426"/>
  <unicode hex="02BF"/>
  <anchor x="326" y="958" name="_top"/>
  <anchor x="326" y="1413" name="top"/>
  <outline>
    <contour>
      <point x="326" y="1341" type="curve"/>
      <point x="326" y="1445" type="line"/>
      <point x="174" y="1445"/>
      <point x="100" y="1374"/>
      <point x="100" y="1262" type="curve" smooth="yes"/>
      <point x="100" y="1258" type="line" smooth="yes"/>
      <point x="100" y="1147"/>
      <point x="174" y="1075"/>
      <point x="326" y="1075" type="curve"/>
      <point x="326" y="1179" type="line"/>
      <point x="262" y="1179"/>
      <point x="228" y="1208"/>
      <point x="228" y="1259" type="curve" smooth="yes"/>
      <point x="228" y="1262" type="line" smooth="yes"/>
      <point x="228" y="1313"/>
      <point x="262" y="1341"/>
    </contour>
  </outline>
</glyph>
<glyph name="verticallinemod" format="2">
  <advance width="376"/>
  <unicode hex="02C8"/>
  <anchor x="188" y="958" name="_top"/>
  <anchor x="188" y="1404" name="top"/>
  <outline>
    <contour>
      <point x="100" y="1095" type="line"/>
      <point x="276" y="1095" type="line"/>
      <point x="276" y="1483" type="line"/>
      <point x="100" y="1483" type="line"/>
    </contour>
  </outline>
</glyph>
<glyph name="gravecomb" format="2">
  <unicode hex="0300"/>
  <anchor x="509" y="958" name="_top"/>
  <anchor x="358" y="1348" name="top"/>
  <outline>
    <contour>
      <point x="349" y="1387" type="line"/>
      <point x="96" y="1387" type="line"/>
      <point x="96" y="1381" type="line"/>
      <point x="405" y="1094" type="line"/>
      <point x="609" y="1094" type="line"/>
      <point x="609" y="1099" type="line"/>
    </contour>
  </outline>
</glyph>
<glyph name="brevecomb" format="2">
  <unicode hex="0306"/>
  <anchor x="447" y="958" name="_top"/>
  <anchor x="447" y="1348" name="top"/>
  <outline>
    <contour>
      <point x="447" y="1078" type="curve" smooth="yes"/>
      <point x="678" y="1078"/>
      <point x="783" y="1191"/>
      <point x="789" y="1387" type="curve"/>
      <point x="633" y="1387" type="line"/>
      <point x="624" y="1275"/>
      <point x="563" y="1219"/>
      <point x="447" y="1219" type="curve" smooth="yes"/>
      <point x="329" y="1219"/>
      <point x="270" y="1277"/>
      <point x="261" y="1387" type="curve"/>
      <point x="105" y="1387" type="line"/>
      <point x="111" y="1191"/>
      <point x="218" y="1078"/>
    </contour>
  </outline>
</glyph>
<glyph name="hookabovecomb" format="2">
  <unicode hex="0309"/>
  <anchor x="260" y="958" name="_top"/>
  <anchor x="275" y="1437" name="top"/>
  <outline>
    <contour>
      <point x="194" y="1080" type="curve"/>
      <point x="170" y="1201" type="line"/>
      <point x="293" y="1224"/>
      <point x="347" y="1246"/>
      <point x="347" y="1300" type="curve" smooth="yes"/>
      <point x="347" y="1337"/>
      <point x="315" y="1354"/>
      <point x="252" y="1354" type="curve" smooth="yes"/>
      <point x="199" y="1354"/>
      <point x="147" y="1341"/>
      <point x="102" y="1324" type="curve"/>
      <point x="113" y="1453" type="line"/>
      <point x="159" y="1470"/>
      <point x="223" y="1485"/>
      <point x="295" y="1485" type="curve" smooth="yes"/>
      <point x="432" y="1485"/>
      <point x="513" y="1427"/>
      <point x="513" y="1313" type="curve" smooth="yes"/>
      <point x="513" y="1177"/>
      <point x="403" y="1108"/>
    </contour>
  </outline>
</glyph>
<glyph name="hungarumlautcomb" format="2">
  <unicode hex="030B"/>
  <anchor x="376" y="958" name="_top"/>
  <anchor x="531" y="1349" name="top"/>
  <outline>
    <contour>
      <point x="659" y="1387" type="line"/>
      <point x="468" y="1096" type="line"/>
      <point x="468" y="1094" type="line"/>
      <point x="646" y="1094" type="line"/>
      <point x="877" y="1382" type="line"/>
      <point x="877" y="1387" type="line"/>
    </contour>
    <contour>
      <point x="290" y="1387" type="line"/>
      <point x="100" y="1096" type="line"/>
      <point x="100" y="1094" type="line"/>
      <point x="279" y="1094" type="line"/>
      <point x="507" y="1382" type="line"/>
      <point x="507" y="1387" type="line"/>
    </contour>
  </outline>
</glyph>
<glyph name="caroncomb" format="2">
  <unicode hex="030C"/>
  <anchor x="472" y="958" name="_top"/>
  <anchor x="472" y="1346" name="top"/>
  <outline>
    <contour>
      <point x="359" y="1094" type="line"/>
      <point x="584" y="1094" type="line"/>
      <point x="843" y="1382" type="line"/>
      <point x="843" y="1387" type="line"/>
      <point x="660" y="1387" type="line"/>
      <point x="476" y="1211" type="line"/>
      <point x="468" y="1211" type="line"/>
      <point x="283" y="1387" type="line"/>
      <point x="100" y="1387" type="line"/>
      <point x="100" y="1382" type="line"/>
    </contour>
  </outline>
</glyph>
<glyph name="dblgravecomb" format="2">
  <unicode hex="030F"/>
  <anchor x="601" y="958" name="_top"/>
  <anchor x="446" y="1349" name="top"/>
  <outline>
    <contour>
      <point x="318" y="1387" type="line"/>
      <point x="100" y="1387" type="line"/>
      <point x="100" y="1382" type="line"/>
      <point x="331" y="1094" type="line"/>
      <point x="509" y="1094" type="line"/>
      <point x="509" y="1096" type="line"/>
    </contour>
    <contour>
      <point x="687" y="1387" type="line"/>
      <point x="470" y="1387" type="line"/>
      <point x="470" y="1382" type="line"/>
      <point x="698" y="1094" type="line"/>
      <point x="877" y="1094" type="line"/>
      <point x="877" y="1096" type="line"/>
    </contour>
  </outline>
</glyph>
<glyph name="breveinvertedcomb" format="2">
  <unicode hex="0311"/>
  <anchor x="447" y="958" name="_top"/>
  <anchor x="447" y="1348" name="top"/>
  <outline>
    <contour>
      <point x="447" y="1403" type="curve" smooth="yes"/>
      <point x="218" y="1403"/>
      <point x="111" y="1290"/>
      <point x="105" y="1094" type="curve"/>
      <point x="261" y="1094" type="line"/>
      <point x="270" y="1204"/>
      <point x="329" y="1262"/>
      <point x="447" y="1262" type="curve" smooth="yes"/>
      <point x="563" y="1262"/>
      <point x="624" y="1206"/>
      <point x="633" y="1094" type="curve"/>
      <point x="789" y="1094" type="line"/>
      <point x="783" y="1290"/>
      <point x="678" y="1403"/>
    </contour>
  </outline>
</glyph>
<glyph name="commaturnedabovecomb" format="2">
  <unicode hex="0312"/>
  <anchor x="233" y="958" name="_top"/>
  <anchor x="233" y="1427" name="top"/>
  <outline>
    <contour>
      <point x="133" y="1094" type="curve"/>
      <point x="323" y="1094" type="line"/>
      <point x="320" y="1121"/>
      <point x="318" y="1146"/>
      <point x="318" y="1175" type="curve" smooth="yes"/>
      <point x="318" y="1287"/>
      <point x="341" y="1374"/>
      <point x="395" y="1460" type="curve"/>
      <point x="249" y="1497" type="line"/>
      <point x="161" y="1399"/>
      <point x="127" y="1299"/>
      <point x="127" y="1173" type="curve" smooth="yes"/>
      <point x="127" y="1145"/>
      <point x="130" y="1115"/>
    </contour>
  </outline>
</glyph>
<glyph name="horncomb" format="2">
  <unicode hex="031B"/>
  <anchor x="372" y="958" name="_topright"/>
  <anchor x="487" y="1216" name="topright"/>
  <outline>
    <contour>
      <point x="151" y="858" type="line"/>
      <point x="370" y="885"/>
      <point x="467" y="960"/>
      <point x="467" y="1109" type="curve" smooth="yes"/>
      <point x="467" y="1155"/>
      <point x="455" y="1193"/>
      <point x="440" y="1226" type="curve"/>
      <point x="245" y="1226" type="line"/>
      <point x="258" y="1193"/>
      <point x="269" y="1156"/>
      <point x="269" y="1118" type="curve" smooth="yes"/>
      <point x="269" y="1025"/>
      <point x="210" y="979"/>
      <point x="100" y="957" type="curve"/>
    </contour>
  </outline>
</glyph>
<glyph name="dotbelowcomb" format="2">
  <unicode hex="0323"/>
  <anchor x="230" y="0" name="_bottom"/>
  <anchor x="230" y="-392" name="bottom"/>
  <outline>
    <contour>
      <point x="229" y="-372" type="curve" smooth="yes"/>
      <point x="317" y="-372"/>
      <point x="359" y="-331"/>
      <point x="359" y="-263" type="curve" smooth="yes"/>
      <point x="359" y="-258" type="line" smooth="yes"/>
      <point x="359" y="-191"/>
      <point x="317" y="-148"/>
      <point x="229" y="-148" type="curve" smooth="yes"/>
      <point x="143" y="-148"/>
      <point x="100" y="-191"/>
      <point x="100" y="-258" type="curve" smooth="yes"/>
      <point x="100" y="-263" type="line" smooth="yes"/>
      <point x="100" y="-331"/>
      <point x="143" y="-372"/>
    </contour>
  </outline>
</glyph>
<glyph name="commaaccentcomb" format="2">
  <unicode hex="0326"/>
  <anchor x="232" y="0" name="_bottom"/>
  <anchor x="232" y="-530" name="bottom"/>
  <outline>
    <contour>
      <point x="332" y="-127" type="curve"/>
      <point x="140" y="-127" type="line"/>
      <point x="143" y="-154"/>
      <point x="145" y="-179"/>
      <point x="145" y="-208" type="curve" smooth="yes"/>
      <point x="145" y="-320"/>
      <point x="122" y="-407"/>
      <point x="68" y="-493" type="curve"/>
      <point x="215" y="-530" type="line"/>
      <point x="304" y="-432"/>
      <point x="338" y="-332"/>
      <point x="338" y="-206" type="curve" smooth="yes"/>
      <point x="338" y="-178"/>
      <point x="335" y="-148"/>
    </contour>
  </outline>
</glyph>
<glyph name="ogonekcomb" format="2">
  <unicode hex="0328"/>
  <anchor x="506" y="-1" name="_ogonek"/>
  <outline>
    <contour>
      <point x="359" y="-397" type="curve" smooth="yes"/>
      <point x="414" y="-397"/>
      <point x="464" y="-389"/>
      <point x="506" y="-372" type="curve"/>
      <point x="532" y="-228" type="line"/>
      <point x="491" y="-241"/>
      <point x="452" y="-247"/>
      <point x="413" y="-247" type="curve" smooth="yes"/>
      <point x="339" y="-247"/>
      <point x="295" y="-222"/>
      <point x="295" y="-161" type="curve" smooth="yes"/>
      <point x="295" y="-160" type="line" smooth="yes"/>
      <point x="295" y="-91"/>
      <point x="359" y="-48"/>
      <point x="462" y="-6" type="curve"/>
      <point x="462" y="16" type="line"/>
      <point x="314" y="16" type="line"/>
      <point x="314" y="-12" type="line"/>
      <point x="192" y="-54"/>
      <point x="129" y="-118"/>
      <point x="129" y="-224" type="curve" smooth="yes"/>
      <point x="129" y="-225" type="line" smooth="yes"/>
      <point x="129" y="-341"/>
      <point x="219" y="-397"/>
    </contour>
  </outline>
</glyph>
<glyph name="strokeshortcomb" format="2">
  <unicode hex="0335"/>
  <anchor x="531" y="651" name="_center"/>
  <outline>
    <contour>
      <point x="101" y="595" type="line"/>
      <point x="960" y="594" type="line"/>
      <point x="960" y="706" type="line"/>
      <point x="101" y="707" type="line"/>
    </contour>
  </outline>
</glyph>
<glyph name="pi" format="2">
  <advance width="1413"/>
  <unicode hex="03C0"/>
  <outline>
    <contour>
      <point x="84" y="774" type="line"/>
      <point x="1307" y="774" type="line"/>
      <point x="1329" y="942" type="line"/>
      <point x="84" y="942" type="line"/>
    </contour>
    <contour>
      <point x="288" y="0" type="line"/>
      <point x="505" y="0" type="line"/>
      <point x="505" y="838" type="line"/>
      <point x="288" y="838" type="line"/>
    </contour>
    <contour>
      <point x="896" y="0" type="line"/>
      <point x="1113" y="0" type="line"/>
      <point x="1113" y="838" type="line"/>
      <point x="896" y="838" type="line"/>
    </contour>
  </outline>
</glyph>
<glyph name="llinebelow" format="2">
  <advance width="542"/>
  <unicode hex="1E3B"/>
  <anchor x="270.5" y="-322" name="bottom"/>
  <anchor x="271" y="646" name="center"/>
  <anchor x="271" y="1319" name="top"/>
  <anchor x="552" y="1319" name="topright"/>
  <outline>
    <contour>
      <point x="-30" y="-340" type="line"/>
      <point x="571" y="-340" type="line"/>
      <point x="571" y="-194" type="line"/>
      <point x="-30" y="-194" type="line"/>
    </contour>
    <component base="l"/>
  </outline>
</glyph>
<glyph name="Otildedieresis" format="2">
  <advance width="1694"/>
  <unicode hex="1E4E"/>
  <anchor x="847" y="1993.48" name="top"/>
  <anchor x="847" y="0" name="bottom"/>
  <anchor x="847" y="639" name="center"/>
  <anchor x="1202" y="5" name="ogonek"/>
  <anchor x="20" y="1278" name="topleft"/>
  <anchor x="1420" y="1278" name="topright"/>
  <outline>
    <contour>
      <point x="655" y="1818" type="curve" smooth="yes"/>
      <point x="741" y="1818"/>
      <point x="782" y="1857"/>
      <point x="782" y="1923" type="curve" smooth="yes"/>
      <point x="782" y="1926" type="line" smooth="yes"/>
      <point x="782" y="1991"/>
      <point x="741" y="2031"/>
      <point x="655" y="2031" type="curve" smooth="yes"/>
      <point x="570" y="2031"/>
      <point x="530" y="1991"/>
      <point x="530" y="1926" type="curve" smooth="yes"/>
      <point x="530" y="1923" type="line" smooth="yes"/>
      <point x="530" y="1858"/>
      <point x="570" y="1818"/>
    </contour>
    <contour>
      <point x="1036" y="1818" type="curve" smooth="yes"/>
      <point x="1122" y="1818"/>
      <point x="1163" y="1857"/>
      <point x="1163" y="1923" type="curve" smooth="yes"/>
      <point x="1163" y="1926" type="line" smooth="yes"/>
      <point x="1163" y="1991"/>
      <point x="1122" y="2031"/>
      <point x="1036" y="2031" type="curve" smooth="yes"/>
      <point x="951" y="2031"/>
      <point x="911" y="1991"/>
      <point x="911" y="1926" type="curve" smooth="yes"/>
      <point x="911" y="1923" type="line" smooth="yes"/>
      <point x="911" y="1858"/>
      <point x="951" y="1818"/>
    </contour>
    <component base="O"/>
    <component base="tildecomb.case" xOffset="381"/>
  </outline>
</glyph>
<glyph name="otildedieresis" format="2">
  <advance width="1409"/>
  <unicode hex="1E4F"/>
  <anchor x="705" y="1715.24" name="top"/>
  <anchor x="705" y="0" name="bottom"/>
  <anchor x="705" y="479" name="center"/>
  <anchor x="1017" y="5" name="ogonek"/>
  <anchor x="1251" y="958" name="topright"/>
  <outline>
    <contour>
      <point x="513" y="1507" type="curve" smooth="yes"/>
      <point x="599" y="1507"/>
      <point x="640" y="1546"/>
      <point x="640" y="1612" type="curve" smooth="yes"/>
      <point x="640" y="1615" type="line" smooth="yes"/>
      <point x="640" y="1680"/>
      <point x="599" y="1720"/>
      <point x="513" y="1720" type="curve" smooth="yes"/>
      <point x="428" y="1720"/>
      <point x="388" y="1680"/>
      <point x="388" y="1615" type="curve" smooth="yes"/>
      <point x="388" y="1612" type="line" smooth="yes"/>
      <point x="388" y="1547"/>
      <point x="428" y="1507"/>
    </contour>
    <contour>
      <point x="894" y="1507" type="curve" smooth="yes"/>
      <point x="980" y="1507"/>
      <point x="1021" y="1546"/>
      <point x="1021" y="1612" type="curve" smooth="yes"/>
      <point x="1021" y="1615" type="line" smooth="yes"/>
      <point x="1021" y="1680"/>
      <point x="980" y="1720"/>
      <point x="894" y="1720" type="curve" smooth="yes"/>
      <point x="809" y="1720"/>
      <point x="769" y="1680"/>
      <point x="769" y="1615" type="curve" smooth="yes"/>
      <point x="769" y="1612" type="line" smooth="yes"/>
      <point x="769" y="1547"/>
      <point x="809" y="1507"/>
    </contour>
    <component base="o"/>
    <component base="tildecomb" xOffset="250"/>
  </outline>
</glyph>
<glyph name="Sacutedotaccent" format="2">
  <advance width="1460"/>
  <unicode hex="1E64"/>
  <anchor x="725" y="2025" name="top"/>
  <anchor x="726" y="0" name="bottom"/>
  <outline>
    <contour>
      <point x="725" y="1824" type="curve" smooth="yes"/>
      <point x="810" y="1824"/>
      <point x="851" y="1864"/>
      <point x="851" y="1930" type="curve" smooth="yes"/>
      <point x="851" y="1934" type="line" smooth="yes"/>
      <point x="851" y="1999"/>
      <point x="810" y="2040"/>
      <point x="725" y="2040" type="curve" smooth="yes"/>
      <point x="642" y="2040"/>
      <point x="600" y="1999"/>
      <point x="600" y="1934" type="curve" smooth="yes"/>
      <point x="600" y="1930" type="line" smooth="yes"/>
      <point x="600" y="1864"/>
      <point x="642" y="1824"/>
    </contour>
    <component base="S"/>
    <component base="acutecomb.case" xOffset="525"/>
  </outline>
</glyph>
<glyph name="sacutedotaccent" format="2">
  <advance width="1219"/>
  <unicode hex="1E65"/>
  <anchor x="610.4" y="1723.18" name="top"/>
  <anchor x="610" y="0" name="bottom"/>
  <outline>
    <contour>
      <point x="609" y="1509" type="curve" smooth="yes"/>
      <point x="696" y="1509"/>
      <point x="737" y="1549"/>
      <point x="737" y="1615" type="curve" smooth="yes"/>
      <point x="737" y="1620" type="line" smooth="yes"/>
      <point x="737" y="1686"/>
      <point x="696" y="1728"/>
      <point x="609" y="1728" type="curve" smooth="yes"/>
      <point x="525" y="1728"/>
      <point x="483" y="1686"/>
      <point x="483" y="1620" type="curve" smooth="yes"/>
      <point x="483" y="1615" type="line" smooth="yes"/>
      <point x="483" y="1549"/>
      <point x="525" y="1509"/>
    </contour>
    <component base="s"/>
    <component base="acutecomb" xOffset="418"/>
  </outline>
</glyph>
<glyph name="scarondotaccent" format="2">
  <advance width="1219"/>
  <unicode hex="1E67"/>
  <anchor x="610.4" y="1721.18" name="top"/>
  <anchor x="610" y="0" name="bottom"/>
  <outline>
    <contour>
      <point x="609" y="1507" type="curve" smooth="yes"/>
      <point x="696" y="1507"/>
      <point x="737" y="1547"/>
      <point x="737" y="1613" type="curve" smooth="yes"/>
      <point x="737" y="1618" type="line" smooth="yes"/>
      <point x="737" y="1684"/>
      <point x="696" y="1726"/>
      <point x="609" y="1726" type="curve" smooth="yes"/>
      <point x="525" y="1726"/>
      <point x="483" y="1684"/>
      <point x="483" y="1618" type="curve" smooth="yes"/>
      <point x="483" y="1613" type="line" smooth="yes"/>
      <point x="483" y="1547"/>
      <point x="525" y="1507"/>
    </contour>
    <component base="s"/>
    <component base="caroncomb" xOffset="138"/>
  </outline>
</glyph>
<glyph name="Ohorntilde" format="2">
  <advance width="1694"/>
  <unicode hex="1EE0"/>
  <anchor x="847.36" y="1652" name="top"/>
  <anchor x="847" y="0" name="bottom"/>
  <anchor x="847" y="639" name="center"/>
  <anchor x="1202" y="5" name="ogonek"/>
  <anchor x="20" y="1278" name="topleft"/>
  <anchor x="1614" y="1537" name="topright"/>
  <outline>
    <contour>
      <point x="1014" y="1432" type="curve" smooth="yes"/>
      <point x="1149" y="1432"/>
      <point x="1199" y="1512"/>
      <point x="1199" y="1644" type="curve" smooth="yes"/>
      <point x="1199" y="1676" type="line"/>
      <point x="1065" y="1676" type="line"/>
      <point x="1065" y="1666" type="line" smooth="yes"/>
      <point x="1065" y="1611"/>
      <point x="1048" y="1582"/>
      <point x="1003" y="1582" type="curve" smooth="yes"/>
      <point x="912" y="1582"/>
      <point x="809" y="1664"/>
      <point x="680" y="1664" type="curve" smooth="yes"/>
      <point x="545" y="1664"/>
      <point x="496" y="1582"/>
      <point x="496" y="1452" type="curve" smooth="yes"/>
      <point x="496" y="1420" type="line"/>
      <point x="628" y="1420" type="line"/>
      <point x="628" y="1430" type="line" smooth="yes"/>
      <point x="628" y="1485"/>
      <point x="647" y="1514"/>
      <point x="692" y="1514" type="curve" smooth="yes"/>
      <point x="782" y="1514"/>
      <point x="888" y="1432"/>
    </contour>
    <component base="Ohorn"/>
  </outline>
</glyph>
<glyph name="Uhorntilde" format="2">
  <advance width="1661"/>
  <unicode hex="1EEE"/>
  <anchor x="831" y="1652" name="top"/>
  <anchor x="831" y="0" name="bottom"/>
  <anchor x="1168" y="5" name="ogonek"/>
  <anchor x="1723" y="1537" name="topright"/>
  <outline>
    <contour>
      <point x="1005" y="1432" type="curve" smooth="yes"/>
      <point x="1145" y="1432"/>
      <point x="1197" y="1512"/>
      <point x="1197" y="1644" type="curve" smooth="yes"/>
      <point x="1197" y="1676" type="line"/>
      <point x="1058" y="1676" type="line"/>
      <point x="1058" y="1666" type="line" smooth="yes"/>
      <point x="1058" y="1611"/>
      <point x="1040" y="1582"/>
      <point x="993" y="1582" type="curve" smooth="yes"/>
      <point x="898" y="1582"/>
      <point x="791" y="1664"/>
      <point x="657" y="1664" type="curve" smooth="yes"/>
      <point x="516" y="1664"/>
      <point x="465" y="1582"/>
      <point x="465" y="1452" type="curve" smooth="yes"/>
      <point x="465" y="1420" type="line"/>
      <point x="603" y="1420" type="line"/>
      <point x="603" y="1430" type="line" smooth="yes"/>
      <point x="603" y="1485"/>
      <point x="622" y="1514"/>
      <point x="669" y="1514" type="curve" smooth="yes"/>
      <point x="763" y="1514"/>
      <point x="873" y="1432"/>
    </contour>
    <component base="Uhorn"/>
  </outline>
</glyph>
<glyph name="dagger" format="2">
  <advance width="1130"/>
  <unicode hex="2020"/>
  <outline>
    <contour>
      <point x="62" y="774" type="line"/>
      <point x="565" y="780" type="line"/>
      <point x="1068" y="774" type="line"/>
      <point x="1068" y="942" type="line"/>
      <point x="565" y="936" type="line"/>
      <point x="62" y="942" type="line"/>
    </contour>
    <contour>
      <point x="454" y="573" type="line"/>
      <point x="454" y="279" type="line"/>
      <point x="506" y="-309" type="line"/>
      <point x="624" y="-309" type="line"/>
      <point x="677" y="279" type="line"/>
      <point x="677" y="573" type="line"/>
      <point x="665" y="847" type="line"/>
      <point x="665" y="863" type="line"/>
      <point x="677" y="1278" type="line"/>
      <point x="454" y="1278" type="line"/>
      <point x="465" y="863" type="line"/>
      <point x="465" y="847" type="line"/>
    </contour>
  </outline>
</glyph>
<glyph name="daggerdbl" format="2">
  <advance width="1146"/>
  <unicode hex="2021"/>
  <outline>
    <contour>
      <point x="70" y="774" type="line"/>
      <point x="573" y="780" type="line"/>
      <point x="1076" y="774" type="line"/>
      <point x="1076" y="942" type="line"/>
      <point x="573" y="936" type="line"/>
      <point x="70" y="942" type="line"/>
    </contour>
    <contour>
      <point x="70" y="196" type="line"/>
      <point x="70" y="28" type="line"/>
      <point x="573" y="34" type="line"/>
      <point x="1076" y="28" type="line"/>
      <point x="1076" y="196" type="line"/>
      <point x="573" y="190" type="line"/>
    </contour>
    <contour>
      <point x="462" y="-309" type="line"/>
      <point x="685" y="-309" type="line"/>
      <point x="673" y="107" type="line"/>
      <point x="673" y="123" type="line"/>
      <point x="685" y="398" type="line"/>
      <point x="685" y="572" type="line"/>
      <point x="673" y="847" type="line"/>
      <point x="673" y="863" type="line"/>
      <point x="685" y="1278" type="line"/>
      <point x="462" y="1278" type="line"/>
      <point x="473" y="863" type="line"/>
      <point x="473" y="847" type="line"/>
      <point x="462" y="573" type="line"/>
      <point x="462" y="398" type="line"/>
      <point x="473" y="123" type="line"/>
      <point x="473" y="107" type="line"/>
    </contour>
  </outline>
</glyph>
<glyph name="perthousand" format="2">
  <advance width="2704"/>
  <unicode hex="2030"/>
  <outline>
    <contour>
      <point x="2254" y="-35" type="curve" smooth="yes"/>
      <point x="2476" y="-35"/>
      <point x="2606" y="87"/>
      <point x="2606" y="296" type="curve"/>
      <point x="2606" y="303" type="line"/>
      <point x="2606" y="511"/>
      <point x="2475" y="632"/>
      <point x="2254" y="632" type="curve" smooth="yes"/>
      <point x="2033" y="632"/>
      <point x="1904" y="508"/>
      <point x="1904" y="303" type="curve"/>
      <point x="1904" y="296" type="line"/>
      <point x="1904" y="87"/>
      <point x="2032" y="-35"/>
    </contour>
    <contour>
      <point x="2254" y="110" type="curve" smooth="yes"/>
      <point x="2142" y="110"/>
      <point x="2075" y="176"/>
      <point x="2075" y="296" type="curve" smooth="yes"/>
      <point x="2075" y="301" type="line" smooth="yes"/>
      <point x="2075" y="420"/>
      <point x="2141" y="488"/>
      <point x="2254" y="488" type="curve" smooth="yes"/>
      <point x="2367" y="488"/>
      <point x="2433" y="420"/>
      <point x="2433" y="301" type="curve" smooth="yes"/>
      <point x="2433" y="296" type="line" smooth="yes"/>
      <point x="2433" y="176"/>
      <point x="2368" y="110"/>
    </contour>
    <component base="percent"/>
  </outline>
</glyph>
<glyph name="minute" format="2">
  <advance width="454"/>
  <unicode hex="2032"/>
  <outline>
    <contour>
      <point x="288" y="790" type="line"/>
      <point x="370" y="1319" type="line"/>
      <point x="154" y="1319" type="line"/>
      <point x="118" y="790" type="line"/>
    </contour>
  </outline>
</glyph>
<glyph name="commercialMinusSign" format="2">
  <advance width="1038"/>
  <unicode hex="2052"/>
  <outline>
    <contour>
      <point x="100" y="1" type="line"/>
      <point x="300" y="1" type="line"/>
      <point x="939" y="1279" type="line"/>
      <point x="741" y="1279" type="line"/>
    </contour>
    <component base="period" xOffset="-14" yOffset="1077"/>
    <component base="period" xOffset="551"/>
  </outline>
</glyph>
<glyph name="colonsign" format="2">
  <advance width="1493"/>
  <unicode hex="20A1"/>
  <anchor x="811" y="0" name="bottom"/>
  <anchor x="811" y="1278" name="top"/>
  <outline>
    <contour>
      <point x="346" y="-209" type="line"/>
      <point x="509" y="-209" type="line"/>
      <point x="608" y="114" type="line"/>
      <point x="445" y="114" type="line"/>
    </contour>
    <contour>
      <point x="626" y="-209" type="line"/>
      <point x="789" y="-209" type="line"/>
      <point x="886" y="114" type="line"/>
      <point x="723" y="114" type="line"/>
    </contour>
    <contour>
      <point x="678" y="1163" type="line"/>
      <point x="841" y="1163" type="line"/>
      <point x="938" y="1484" type="line"/>
      <point x="775" y="1484" type="line"/>
    </contour>
    <contour>
      <point x="956" y="1163" type="line"/>
      <point x="1119" y="1163" type="line"/>
      <point x="1216" y="1484" type="line"/>
      <point x="1053" y="1484" type="line"/>
    </contour>
    <component base="C"/>
  </outline>
</glyph>
<glyph name="franc" format="2">
  <advance width="1435"/>
  <unicode hex="20A3"/>
  <outline>
    <contour>
      <point x="208" y="0" type="line"/>
      <point x="428" y="0" type="line"/>
      <point x="428" y="1278" type="line"/>
      <point x="208" y="1278" type="line"/>
    </contour>
    <contour>
      <point x="15" y="190" type="line"/>
      <point x="1040" y="190" type="line"/>
      <point x="1055" y="340" type="line"/>
      <point x="30" y="341" type="line"/>
    </contour>
    <contour>
      <point x="322" y="545" type="line"/>
      <point x="1305" y="545" type="line"/>
      <point x="1305" y="725" type="line"/>
      <point x="322" y="725" type="line"/>
    </contour>
    <contour>
      <point x="219" y="1097" type="line"/>
      <point x="1325" y="1097" type="line"/>
      <point x="1325" y="1278" type="line"/>
      <point x="219" y="1278" type="line"/>
    </contour>
  </outline>
</glyph>
<glyph name="lira" format="2">
  <advance width="1505"/>
  <unicode hex="20A4"/>
  <outline>
    <contour>
      <point x="414" y="183" type="line"/>
      <point x="414" y="191" type="line"/>
      <point x="534" y="233"/>
      <point x="593" y="312"/>
      <point x="593" y="443" type="curve" smooth="yes"/>
      <point x="593" y="607"/>
      <point x="500" y="731"/>
      <point x="500" y="896" type="curve" smooth="yes"/>
      <point x="500" y="1047"/>
      <point x="609" y="1124"/>
      <point x="882" y="1124" type="curve" smooth="yes"/>
      <point x="1032" y="1124"/>
      <point x="1177" y="1101"/>
      <point x="1316" y="1061" type="curve"/>
      <point x="1297" y="1244" type="line"/>
      <point x="1166" y="1282"/>
      <point x="998" y="1306"/>
      <point x="836" y="1306" type="curve" smooth="yes"/>
      <point x="448" y="1306"/>
      <point x="264" y="1179"/>
      <point x="264" y="922" type="curve" smooth="yes"/>
      <point x="264" y="729"/>
      <point x="364" y="576"/>
      <point x="363" y="412" type="curve" smooth="yes"/>
      <point x="363" y="291"/>
      <point x="302" y="212"/>
      <point x="174" y="188" type="curve" smooth="yes"/>
      <point x="105" y="175" type="line"/>
      <point x="105" y="0" type="line"/>
      <point x="1415" y="0" type="line"/>
      <point x="1415" y="183" type="line"/>
    </contour>
    <contour>
      <point x="105" y="875" type="line"/>
      <point x="90" y="722" type="line"/>
      <point x="1231" y="722" type="line"/>
      <point x="1245" y="875" type="line"/>
    </contour>
    <contour>
      <point x="105" y="569" type="line"/>
      <point x="90" y="416" type="line"/>
      <point x="1231" y="416" type="line"/>
      <point x="1245" y="569" type="line"/>
    </contour>
  </outline>
</glyph>
<glyph name="naira" format="2">
  <advance width="1733"/>
  <unicode hex="20A6"/>
  <outline>
    <contour>
      <point x="208" y="0" type="line"/>
      <point x="431" y="0" type="line"/>
      <point x="431" y="627" type="line"/>
      <point x="423" y="1078" type="line"/>
      <point x="441" y="1078" type="line"/>
      <point x="753" y="663" type="line"/>
      <point x="987" y="663" type="line"/>
      <point x="533" y="1278" type="line"/>
      <point x="208" y="1278" type="line"/>
    </contour>
    <contour>
      <point x="15" y="570" type="line"/>
      <point x="1704" y="570" type="line"/>
      <point x="1719" y="731" type="line"/>
      <point x="30" y="732" type="line"/>
    </contour>
    <contour>
      <point x="1214" y="0" type="line"/>
      <point x="1526" y="0" type="line"/>
      <point x="1526" y="1278" type="line"/>
      <point x="1304" y="1278" type="line"/>
      <point x="1304" y="681" type="line"/>
      <point x="1312" y="218" type="line"/>
      <point x="1294" y="218" type="line"/>
      <point x="971" y="652" type="line"/>
      <point x="737" y="652" type="line"/>
    </contour>
  </outline>
</glyph>
<glyph name="won" format="2">
  <advance width="2210"/>
  <unicode hex="20A9"/>
  <outline>
    <contour>
      <point x="463" y="0" type="line"/>
      <point x="792" y="0" type="line"/>
      <point x="987" y="661" type="line"/>
      <point x="785" y="661" type="line"/>
      <point x="671" y="274" type="line"/>
      <point x="644" y="185" type="line"/>
      <point x="624" y="185" type="line"/>
      <point x="597" y="274" type="line"/>
      <point x="315" y="1278" type="line"/>
      <point x="76" y="1278" type="line"/>
    </contour>
    <contour>
      <point x="1420" y="0" type="line"/>
      <point x="1749" y="0" type="line"/>
      <point x="2135" y="1278" type="line"/>
      <point x="1897" y="1278" type="line"/>
      <point x="1614" y="273" type="line"/>
      <point x="1588" y="185" type="line"/>
      <point x="1568" y="185" type="line"/>
      <point x="1541" y="273" type="line"/>
      <point x="1426" y="661" type="line"/>
      <point x="1224" y="661" type="line"/>
    </contour>
    <contour>
      <point x="57" y="570" type="line"/>
      <point x="2126" y="570" type="line"/>
      <point x="2141" y="731" type="line"/>
      <point x="72" y="732" type="line"/>
    </contour>
    <contour>
      <point x="952" y="1241" type="line"/>
      <point x="783" y="661" type="line"/>
      <point x="983" y="661" type="line"/>
      <point x="1014" y="777" type="line"/>
      <point x="1095" y="1065" type="line"/>
      <point x="1117" y="1065" type="line"/>
      <point x="1198" y="777" type="line"/>
      <point x="1229" y="661" type="line"/>
      <point x="1429" y="661" type="line"/>
      <point x="1260" y="1241" type="line"/>
    </contour>
  </outline>
</glyph>
<glyph name="uni20AA" format="2">
  <advance width="1840"/>
  <unicode hex="20AA"/>
  <outline>
    <contour>
      <point x="611" y="0" type="line"/>
      <point x="1253" y="0" type="line" smooth="yes"/>
      <point x="1530" y="0"/>
      <point x="1655" y="132"/>
      <point x="1655" y="372" type="curve" smooth="yes"/>
      <point x="1655" y="1093" type="line"/>
      <point x="1447" y="1093" type="line"/>
      <point x="1447" y="373" type="line" smooth="yes"/>
      <point x="1447" y="235"/>
      <point x="1384" y="168"/>
      <point x="1251" y="168" type="curve" smooth="yes"/>
      <point x="819" y="168" type="line"/>
      <point x="819" y="737" type="line"/>
      <point x="611" y="737" type="line"/>
    </contour>
    <contour>
      <point x="185" y="1093" type="line"/>
      <point x="185" y="0" type="line"/>
      <point x="393" y="0" type="line"/>
      <point x="393" y="925" type="line"/>
      <point x="831" y="925" type="line" smooth="yes"/>
      <point x="964" y="925"/>
      <point x="1027" y="858"/>
      <point x="1027" y="720" type="curve" smooth="yes"/>
      <point x="1027" y="356" type="line"/>
      <point x="1235" y="356" type="line"/>
      <point x="1235" y="711" type="line" smooth="yes"/>
      <point x="1235" y="957"/>
      <point x="1113" y="1093"/>
      <point x="843" y="1093" type="curve" smooth="yes"/>
    </contour>
  </outline>
</glyph>
<glyph name="dong" format="2">
  <advance width="1464"/>
  <unicode hex="20AB"/>
  <anchor x="731.558" y="-322" name="bottom"/>
  <anchor x="732" y="479" name="center"/>
  <anchor x="732" y="1319" name="top"/>
  <anchor x="1476" y="1319" name="topright"/>
  <outline>
    <contour>
      <point x="154" y="-340" type="line"/>
      <point x="1309" y="-340" type="line"/>
      <point x="1309" y="-194" type="line"/>
      <point x="154" y="-194" type="line"/>
    </contour>
    <component base="dcroat"/>
  </outline>
</glyph>
<glyph name="kip" format="2">
  <advance width="1563"/>
  <unicode hex="20AD"/>
  <anchor x="794" y="0" name="bottom"/>
  <anchor x="794" y="1278" name="top"/>
  <outline>
    <contour>
      <point x="659" y="731" type="line"/>
      <point x="646" y="570" type="line"/>
      <point x="1377" y="570" type="line"/>
      <point x="1392" y="731" type="line"/>
    </contour>
    <contour>
      <point x="372" y="570" type="line"/>
      <point x="386" y="731" type="line"/>
      <point x="31" y="732" type="line"/>
      <point x="16" y="570" type="line"/>
    </contour>
    <component base="K" xOffset="24"/>
  </outline>
</glyph>
<glyph name="uni20AE" format="2">
  <advance width="1489"/>
  <unicode hex="20AE"/>
  <anchor x="745" y="0" name="bottom"/>
  <anchor x="745" y="639" name="center"/>
  <anchor x="745" y="1278" name="top"/>
  <outline>
    <contour>
      <point x="1191" y="926" type="line"/>
      <point x="298" y="637" type="line"/>
      <point x="298" y="485" type="line"/>
      <point x="1191" y="774" type="line"/>
    </contour>
    <contour>
      <point x="1191" y="598" type="line"/>
      <point x="298" y="309" type="line"/>
      <point x="298" y="157" type="line"/>
      <point x="1191" y="446" type="line"/>
    </contour>
    <component base="T"/>
  </outline>
</glyph>
<glyph name="peso" format="2">
  <advance width="1647"/>
  <unicode hex="20B1"/>
  <outline>
    <contour>
      <point x="379" y="415" type="line"/>
      <point x="943" y="415" type="line" smooth="yes"/>
      <point x="1302" y="415"/>
      <point x="1466" y="577"/>
      <point x="1466" y="837" type="curve" smooth="yes"/>
      <point x="1466" y="855" type="line" smooth="yes"/>
      <point x="1466" y="1118"/>
      <point x="1302" y="1278"/>
      <point x="943" y="1278" type="curve" smooth="yes"/>
      <point x="373" y="1278" type="line"/>
      <point x="373" y="1098" type="line"/>
      <point x="943" y="1098" type="line" smooth="yes"/>
      <point x="1148" y="1098"/>
      <point x="1236" y="1008"/>
      <point x="1236" y="855" type="curve" smooth="yes"/>
      <point x="1236" y="838" type="line" smooth="yes"/>
      <point x="1236" y="685"/>
      <point x="1148" y="596"/>
      <point x="943" y="596" type="curve" smooth="yes"/>
      <point x="379" y="596" type="line"/>
    </contour>
    <contour>
      <point x="25" y="614" type="line"/>
      <point x="333" y="614" type="line"/>
      <point x="343" y="764" type="line"/>
      <point x="40" y="764" type="line"/>
    </contour>
    <contour>
      <point x="217" y="0" type="line"/>
      <point x="437" y="0" type="line"/>
      <point x="437" y="445" type="line"/>
      <point x="437" y="538" type="line"/>
      <point x="437" y="1278" type="line"/>
      <point x="217" y="1278" type="line"/>
    </contour>
    <contour>
      <point x="25" y="893" type="line"/>
      <point x="333" y="893" type="line"/>
      <point x="343" y="1043" type="line"/>
      <point x="40" y="1043" type="line"/>
    </contour>
    <contour>
      <point x="1299" y="614" type="line"/>
      <point x="1624" y="614" type="line"/>
      <point x="1639" y="764" type="line"/>
      <point x="1308" y="764" type="line"/>
    </contour>
    <contour>
      <point x="1299" y="893" type="line"/>
      <point x="1624" y="893" type="line"/>
      <point x="1639" y="1043" type="line"/>
      <point x="1308" y="1043" type="line"/>
    </contour>
  </outline>
</glyph>
<glyph name="guarani" format="2">
  <advance width="1680"/>
  <unicode hex="20B2"/>
  <outline>
    <contour>
      <point x="962" y="1191" type="line"/>
      <point x="962" y="1528" type="line"/>
      <point x="756" y="1528" type="line"/>
      <point x="756" y="1191" type="line"/>
    </contour>
    <contour>
      <point x="962" y="-255" type="line"/>
      <point x="962" y="69" type="line"/>
      <point x="756" y="69" type="line"/>
      <point x="756" y="-255" type="line"/>
    </contour>
    <contour>
      <point x="851" y="-33" type="curve" smooth="yes"/>
      <point x="1175" y="-33"/>
      <point x="1391" y="66"/>
      <point x="1513" y="174" type="curve"/>
      <point x="1513" y="715" type="line"/>
      <point x="867" y="715" type="line"/>
      <point x="867" y="537" type="line"/>
      <point x="1346" y="539" type="line"/>
      <point x="1305" y="606" type="line"/>
      <point x="1305" y="265" type="line"/>
      <point x="1239" y="218"/>
      <point x="1092" y="155"/>
      <point x="863" y="155" type="curve" smooth="yes"/>
      <point x="521" y="155"/>
      <point x="345" y="330"/>
      <point x="345" y="628" type="curve" smooth="yes"/>
      <point x="345" y="647" type="line" smooth="yes"/>
      <point x="345" y="953"/>
      <point x="531" y="1125"/>
      <point x="900" y="1125" type="curve" smooth="yes"/>
      <point x="1146" y="1125"/>
      <point x="1330" y="1059"/>
      <point x="1475" y="985" type="curve"/>
      <point x="1453" y="1180" type="line"/>
      <point x="1326" y="1247"/>
      <point x="1137" y="1311"/>
      <point x="879" y="1311" type="curve" smooth="yes"/>
      <point x="375" y="1311"/>
      <point x="112" y="1064"/>
      <point x="112" y="644" type="curve"/>
      <point x="112" y="626" type="line"/>
      <point x="112" y="206"/>
      <point x="370" y="-33"/>
    </contour>
  </outline>
</glyph>
<glyph name="cedi" format="2">
  <advance width="1493"/>
  <unicode hex="20B5"/>
  <anchor x="811" y="0" name="bottom"/>
  <anchor x="811" y="1278" name="top"/>
  <outline>
    <contour>
      <point x="763" y="-253" type="line"/>
      <point x="969" y="-253" type="line"/>
      <point x="969" y="105" type="line"/>
      <point x="763" y="105" type="line"/>
    </contour>
    <contour>
      <point x="763" y="1184" type="line"/>
      <point x="969" y="1184" type="line"/>
      <point x="969" y="1530" type="line"/>
      <point x="763" y="1530" type="line"/>
    </contour>
    <component base="C"/>
  </outline>
</glyph>
<glyph name="liraTurkish" format="2">
  <advance width="1535"/>
  <unicode hex="20BA"/>
  <outline>
    <contour>
      <point x="212" y="0" type="line"/>
      <point x="521" y="0" type="line" smooth="yes"/>
      <point x="1143" y="0"/>
      <point x="1415" y="243"/>
      <point x="1420" y="646" type="curve"/>
      <point x="1420" y="652" type="line"/>
      <point x="1197" y="652" type="line"/>
      <point x="1197" y="646" type="line"/>
      <point x="1196" y="345"/>
      <point x="990" y="183"/>
      <point x="551" y="183" type="curve" smooth="yes"/>
      <point x="435" y="183" type="line"/>
      <point x="435" y="1278" type="line"/>
      <point x="212" y="1278" type="line"/>
    </contour>
    <contour>
      <point x="913" y="1166" type="line"/>
      <point x="20" y="877" type="line"/>
      <point x="20" y="725" type="line"/>
      <point x="913" y="1014" type="line"/>
    </contour>
    <contour>
      <point x="913" y="838" type="line"/>
      <point x="20" y="549" type="line"/>
      <point x="20" y="397" type="line"/>
      <point x="913" y="686" type="line"/>
    </contour>
  </outline>
</glyph>
<glyph name="manat" format="2">
  <advance width="1941"/>
  <unicode hex="20BC"/>
  <outline>
    <contour>
      <point x="971" y="1311" type="curve" smooth="yes"/>
      <point x="448" y="1311"/>
      <point x="172" y="1072"/>
      <point x="172" y="620" type="curve" smooth="yes"/>
      <point x="172" y="0" type="line"/>
      <point x="395" y="0" type="line"/>
      <point x="395" y="619" type="line"/>
      <point x="395" y="946"/>
      <point x="590" y="1126"/>
      <point x="971" y="1126" type="curve" smooth="yes"/>
      <point x="1351" y="1126"/>
      <point x="1546" y="946"/>
      <point x="1546" y="619" type="curve" smooth="yes"/>
      <point x="1546" y="0" type="line"/>
      <point x="1769" y="0" type="line"/>
      <point x="1769" y="620" type="line"/>
      <point x="1769" y="1072"/>
      <point x="1494" y="1311"/>
    </contour>
    <contour>
      <point x="1078" y="0" type="line"/>
      <point x="1078" y="1530" type="line"/>
      <point x="864" y="1530" type="line"/>
      <point x="864" y="0" type="line"/>
    </contour>
  </outline>
</glyph>
<glyph name="ruble" format="2">
  <advance width="1558"/>
  <unicode hex="20BD"/>
  <outline>
    <contour>
      <point x="379" y="475" type="line"/>
      <point x="953" y="475" type="line" smooth="yes"/>
      <point x="1305" y="475"/>
      <point x="1466" y="625"/>
      <point x="1466" y="867" type="curve" smooth="yes"/>
      <point x="1466" y="885" type="line" smooth="yes"/>
      <point x="1466" y="1129"/>
      <point x="1305" y="1278"/>
      <point x="953" y="1278" type="curve" smooth="yes"/>
      <point x="373" y="1278" type="line"/>
      <point x="373" y="1098" type="line"/>
      <point x="953" y="1098" type="line" smooth="yes"/>
      <point x="1151" y="1098"/>
      <point x="1236" y="1019"/>
      <point x="1236" y="885" type="curve" smooth="yes"/>
      <point x="1236" y="868" type="line" smooth="yes"/>
      <point x="1236" y="734"/>
      <point x="1151" y="656"/>
      <point x="953" y="656" type="curve" smooth="yes"/>
      <point x="379" y="656" type="line"/>
    </contour>
    <contour>
      <point x="24" y="180" type="line"/>
      <point x="1069" y="180" type="line"/>
      <point x="1084" y="326" type="line"/>
      <point x="39" y="327" type="line"/>
    </contour>
    <contour>
      <point x="25" y="483" type="line"/>
      <point x="408" y="483" type="line"/>
      <point x="408" y="629" type="line"/>
      <point x="38" y="630" type="line"/>
    </contour>
    <contour>
      <point x="217" y="0" type="line"/>
      <point x="437" y="0" type="line"/>
      <point x="437" y="505" type="line"/>
      <point x="437" y="598" type="line"/>
      <point x="437" y="1278" type="line"/>
      <point x="217" y="1278" type="line"/>
    </contour>
  </outline>
</glyph>
<glyph name="literSign" format="2">
  <advance width="1062"/>
  <unicode hex="2113"/>
  <outline>
    <contour>
      <point x="310" y="476" type="curve"/>
      <point x="327" y="300" type="line"/>
      <point x="757" y="468"/>
      <point x="969" y="631"/>
      <point x="969" y="935" type="curve" smooth="yes"/>
      <point x="969" y="964" type="line" smooth="yes"/>
      <point x="969" y="1190"/>
      <point x="827" y="1339"/>
      <point x="574" y="1339" type="curve" smooth="yes"/>
      <point x="313" y="1339"/>
      <point x="169" y="1194"/>
      <point x="169" y="925" type="curve"/>
      <point x="169" y="476" type="line"/>
      <point x="381" y="466" type="line"/>
      <point x="381" y="939" type="line"/>
      <point x="381" y="1086"/>
      <point x="446" y="1169"/>
      <point x="575" y="1169" type="curve" smooth="yes"/>
      <point x="705" y="1169"/>
      <point x="766" y="1084"/>
      <point x="766" y="965" type="curve" smooth="yes"/>
      <point x="766" y="937" type="line" smooth="yes"/>
      <point x="766" y="726"/>
      <point x="627" y="603"/>
    </contour>
    <contour>
      <point x="295" y="303" type="curve"/>
      <point x="295" y="476" type="line"/>
      <point x="216" y="445"/>
      <point x="124" y="412"/>
      <point x="22" y="379" type="curve"/>
      <point x="22" y="199" type="line"/>
      <point x="117" y="233"/>
      <point x="209" y="267"/>
    </contour>
    <contour>
      <point x="625" y="-27" type="curve" smooth="yes"/>
      <point x="739" y="-27"/>
      <point x="853" y="0"/>
      <point x="931" y="40" type="curve"/>
      <point x="953" y="229" type="line"/>
      <point x="869" y="184"/>
      <point x="762" y="154"/>
      <point x="662" y="154" type="curve" smooth="yes"/>
      <point x="445" y="154"/>
      <point x="381" y="240"/>
      <point x="381" y="440" type="curve" smooth="yes"/>
      <point x="381" y="572" type="line"/>
      <point x="169" y="567" type="line"/>
      <point x="169" y="435" type="line" smooth="yes"/>
      <point x="169" y="132"/>
      <point x="293" y="-27"/>
    </contour>
  </outline>
</glyph>
<glyph name="numero" format="2">
  <advance width="2600"/>
  <unicode hex="2116"/>
  <anchor x="844.13504" y="0" name="bottom"/>
  <anchor x="844.13504" y="1278" name="top"/>
  <outline>
    <contour>
      <point x="1754" y="332" type="line"/>
      <point x="2495" y="332" type="line"/>
      <point x="2495" y="473" type="line"/>
      <point x="1754" y="473" type="line"/>
    </contour>
    <contour>
      <point x="2124" y="619" type="curve" smooth="yes"/>
      <point x="2366" y="619"/>
      <point x="2501" y="733"/>
      <point x="2501" y="944" type="curve"/>
      <point x="2501" y="963" type="line"/>
      <point x="2501" y="1173"/>
      <point x="2367" y="1288"/>
      <point x="2124" y="1288" type="curve" smooth="yes"/>
      <point x="1882" y="1288"/>
      <point x="1747" y="1173"/>
      <point x="1747" y="963" type="curve"/>
      <point x="1747" y="944" type="line"/>
      <point x="1747" y="734"/>
      <point x="1881" y="619"/>
    </contour>
    <contour>
      <point x="2124" y="754" type="curve" smooth="yes"/>
      <point x="1990" y="754"/>
      <point x="1915" y="820"/>
      <point x="1915" y="946" type="curve" smooth="yes"/>
      <point x="1915" y="962" type="line" smooth="yes"/>
      <point x="1915" y="1087"/>
      <point x="1990" y="1153"/>
      <point x="2124" y="1153" type="curve" smooth="yes"/>
      <point x="2258" y="1153"/>
      <point x="2333" y="1087"/>
      <point x="2333" y="962" type="curve" smooth="yes"/>
      <point x="2333" y="946" type="line" smooth="yes"/>
      <point x="2333" y="820"/>
      <point x="2257" y="754"/>
    </contour>
    <component base="N" xScale="1.00016"/>
  </outline>
</glyph>
<glyph name="Ohm" format="2">
  <advance width="1729"/>
  <unicode hex="2126"/>
  <outline>
    <contour>
      <point x="864" y="1311" type="curve" smooth="yes"/>
      <point x="380" y="1311"/>
      <point x="125" y="1058"/>
      <point x="125" y="696" type="curve" smooth="yes"/>
      <point x="125" y="681" type="line" smooth="yes"/>
      <point x="125" y="418"/>
      <point x="267" y="243"/>
      <point x="500" y="178" type="curve"/>
      <point x="500" y="168" type="line"/>
      <point x="84" y="172" type="line"/>
      <point x="84" y="1" type="line"/>
      <point x="740" y="1" type="line"/>
      <point x="740" y="167" type="line"/>
      <point x="507" y="229"/>
      <point x="356" y="401"/>
      <point x="356" y="638" type="curve" smooth="yes"/>
      <point x="356" y="659" type="line" smooth="yes"/>
      <point x="356" y="937"/>
      <point x="538" y="1119"/>
      <point x="865" y="1119" type="curve" smooth="yes"/>
      <point x="1190" y="1119"/>
      <point x="1373" y="937"/>
      <point x="1373" y="659" type="curve" smooth="yes"/>
      <point x="1373" y="638" type="line" smooth="yes"/>
      <point x="1373" y="401"/>
      <point x="1222" y="229"/>
      <point x="989" y="167" type="curve"/>
      <point x="989" y="1" type="line"/>
      <point x="1645" y="1" type="line"/>
      <point x="1645" y="172" type="line"/>
      <point x="1229" y="168" type="line"/>
      <point x="1229" y="178" type="line"/>
      <point x="1475" y="243"/>
      <point x="1604" y="418"/>
      <point x="1604" y="681" type="curve" smooth="yes"/>
      <point x="1604" y="696" type="line" smooth="yes"/>
      <point x="1604" y="1058"/>
      <point x="1348" y="1311"/>
    </contour>
  </outline>
</glyph>
<glyph name="estimated" format="2">
  <advance width="1599"/>
  <unicode hex="212E"/>
  <outline>
    <contour>
      <point x="374" y="581" type="curve"/>
      <point x="1487" y="581" type="line"/>
      <point x="1487" y="606" type="line" smooth="yes"/>
      <point x="1487" y="979"/>
      <point x="1211" y="1227"/>
      <point x="798" y="1227" type="curve" smooth="yes"/>
      <point x="386" y="1227"/>
      <point x="112" y="979"/>
      <point x="112" y="606" type="curve" smooth="yes"/>
      <point x="112" y="226"/>
      <point x="386" y="-10"/>
      <point x="798" y="-10" type="curve" smooth="yes"/>
      <point x="1012" y="-10"/>
      <point x="1221" y="86"/>
      <point x="1345" y="230" type="curve"/>
      <point x="1244" y="230" type="line"/>
      <point x="1135" y="116"/>
      <point x="981" y="46"/>
      <point x="801" y="46" type="curve" smooth="yes"/>
      <point x="623" y="46"/>
      <point x="485" y="97"/>
      <point x="382" y="204" type="curve" smooth="yes"/>
      <point x="369" y="218"/>
      <point x="363" y="231"/>
      <point x="363" y="244" type="curve" smooth="yes"/>
      <point x="363" y="574" type="line" smooth="yes"/>
      <point x="363" y="579"/>
      <point x="367" y="581"/>
    </contour>
    <contour>
      <point x="1237" y="983" type="curve"/>
      <point x="1237" y="647" type="line" smooth="yes"/>
      <point x="1237" y="640"/>
      <point x="1234" y="637"/>
      <point x="1227" y="637" type="curve" smooth="yes"/>
      <point x="374" y="637" type="line" smooth="yes"/>
      <point x="367" y="637"/>
      <point x="363" y="640"/>
      <point x="363" y="647" type="curve" smooth="yes"/>
      <point x="363" y="976" type="line" smooth="yes"/>
      <point x="363" y="990"/>
      <point x="370" y="1007"/>
      <point x="382" y="1020" type="curve" smooth="yes"/>
      <point x="464" y="1104"/>
      <point x="633" y="1178"/>
      <point x="801" y="1178" type="curve" smooth="yes"/>
      <point x="966" y="1178"/>
      <point x="1121" y="1129"/>
      <point x="1217" y="1025" type="curve" smooth="yes"/>
      <point x="1230" y="1011"/>
      <point x="1237" y="998"/>
    </contour>
  </outline>
</glyph>
<glyph name="partialdiff" format="2">
  <advance width="1455"/>
  <unicode hex="2202"/>
  <outline>
    <contour>
      <point x="391" y="1262" type="curve"/>
      <point x="350" y="1082" type="line"/>
      <point x="438" y="1110"/>
      <point x="531" y="1126"/>
      <point x="651" y="1126" type="curve" smooth="yes"/>
      <point x="958" y="1126"/>
      <point x="1112" y="973"/>
      <point x="1112" y="680" type="curve"/>
      <point x="1112" y="675"/>
      <point x="1112" y="669"/>
      <point x="1112" y="664" type="curve"/>
      <point x="1112" y="345"/>
      <point x="972" y="150"/>
      <point x="652" y="150" type="curve" smooth="yes"/>
      <point x="430" y="150"/>
      <point x="320" y="242"/>
      <point x="320" y="394" type="curve"/>
      <point x="320" y="397"/>
      <point x="320" y="400"/>
      <point x="320" y="403" type="curve"/>
      <point x="320" y="562"/>
      <point x="422" y="653"/>
      <point x="658" y="653" type="curve" smooth="yes"/>
      <point x="881" y="653"/>
      <point x="1028" y="546"/>
      <point x="1087" y="409" type="curve"/>
      <point x="1124" y="525" type="line"/>
      <point x="1092" y="525" type="line"/>
      <point x="1040" y="692"/>
      <point x="896" y="828"/>
      <point x="602" y="828" type="curve" smooth="yes"/>
      <point x="297" y="828"/>
      <point x="98" y="687"/>
      <point x="98" y="400" type="curve"/>
      <point x="98" y="396"/>
      <point x="98" y="392"/>
      <point x="98" y="388" type="curve"/>
      <point x="99" y="117"/>
      <point x="295" y="-31"/>
      <point x="646" y="-31" type="curve" smooth="yes"/>
      <point x="1092" y="-31"/>
      <point x="1335" y="235"/>
      <point x="1335" y="671" type="curve"/>
      <point x="1335" y="678"/>
      <point x="1335" y="685"/>
      <point x="1335" y="692" type="curve"/>
      <point x="1335" y="1093"/>
      <point x="1109" y="1304"/>
      <point x="709" y="1304" type="curve" smooth="yes"/>
      <point x="596" y="1304"/>
      <point x="479" y="1289"/>
    </contour>
  </outline>
</glyph>
<glyph name="emptyset" format="2">
  <advance width="1441"/>
  <unicode hex="2205"/>
  <outline>
    <contour>
      <point x="179" y="-104" type="line"/>
      <point x="367" y="-104" type="line"/>
      <point x="1255" y="1185" type="line"/>
      <point x="1067" y="1185" type="line"/>
    </contour>
    <contour>
      <point x="720" y="-32" type="curve" smooth="yes"/>
      <point x="1086" y="-32"/>
      <point x="1329" y="195"/>
      <point x="1329" y="534" type="curve"/>
      <point x="1329" y="559" type="line"/>
      <point x="1329" y="892"/>
      <point x="1086" y="1113"/>
      <point x="720" y="1113" type="curve" smooth="yes"/>
      <point x="355" y="1113"/>
      <point x="112" y="892"/>
      <point x="112" y="559" type="curve"/>
      <point x="112" y="534" type="line"/>
      <point x="112" y="195"/>
      <point x="355" y="-32"/>
    </contour>
    <contour>
      <point x="720" y="143" type="curve" smooth="yes"/>
      <point x="481" y="143"/>
      <point x="321" y="300"/>
      <point x="321" y="534" type="curve" smooth="yes"/>
      <point x="321" y="559" type="line" smooth="yes"/>
      <point x="321" y="787"/>
      <point x="481" y="939"/>
      <point x="720" y="939" type="curve" smooth="yes"/>
      <point x="960" y="939"/>
      <point x="1120" y="787"/>
      <point x="1120" y="559" type="curve" smooth="yes"/>
      <point x="1120" y="534" type="line" smooth="yes"/>
      <point x="1120" y="300"/>
      <point x="960" y="143"/>
    </contour>
  </outline>
</glyph>
<glyph name="increment" format="2">
  <advance width="1619"/>
  <unicode hex="2206"/>
  <outline>
    <contour>
      <point x="1357" y="64" type="line"/>
      <point x="1535" y="176" type="line"/>
      <point x="933" y="1278" type="line"/>
      <point x="720" y="1278" type="line"/>
    </contour>
    <contour>
      <point x="84" y="176" type="line"/>
      <point x="84" y="0" type="line"/>
      <point x="911" y="0" type="line"/>
      <point x="911" y="178" type="line"/>
      <point x="231" y="178" type="line"/>
    </contour>
    <contour>
      <point x="262" y="64" type="line"/>
      <point x="899" y="1278" type="line"/>
      <point x="686" y="1278" type="line"/>
      <point x="84" y="176" type="line"/>
    </contour>
    <contour>
      <point x="1535" y="176" type="line"/>
      <point x="1388" y="178" type="line"/>
      <point x="699" y="178" type="line"/>
      <point x="699" y="0" type="line"/>
      <point x="1535" y="0" type="line"/>
    </contour>
  </outline>
</glyph>
<glyph name="product" format="2">
  <advance width="1439"/>
  <unicode hex="220F"/>
  <outline>
    <contour>
      <point x="1254" y="-185" type="line"/>
      <point x="1254" y="1278" type="line"/>
      <point x="185" y="1278" type="line"/>
      <point x="185" y="-185" type="line"/>
      <point x="408" y="-185" type="line"/>
      <point x="408" y="1178" type="line"/>
      <point x="329" y="1103" type="line"/>
      <point x="1113" y="1103" type="line"/>
      <point x="1031" y="1175" type="line"/>
      <point x="1031" y="-185" type="line"/>
    </contour>
  </outline>
</glyph>
<glyph name="summation" format="2">
  <advance width="1310"/>
  <unicode hex="2211"/>
  <outline>
    <contour>
      <point x="84" y="1116" type="line"/>
      <point x="223" y="1103" type="line"/>
      <point x="1200" y="1103" type="line"/>
      <point x="1200" y="1278" type="line"/>
      <point x="84" y="1278" type="line"/>
    </contour>
    <contour>
      <point x="84" y="-185" type="line"/>
      <point x="1200" y="-185" type="line"/>
      <point x="1200" y="-10" type="line"/>
      <point x="206" y="-10" type="line"/>
      <point x="84" y="-21" type="line"/>
    </contour>
    <contour>
      <point x="678" y="556" type="line"/>
      <point x="678" y="541" type="line"/>
      <point x="84" y="-21" type="line"/>
      <point x="244" y="-125" type="line"/>
      <point x="905" y="477" type="line"/>
      <point x="905" y="619" type="line"/>
      <point x="244" y="1219" type="line"/>
      <point x="84" y="1116" type="line"/>
    </contour>
  </outline>
</glyph>
<glyph name="radical" format="2">
  <advance width="1393"/>
  <unicode hex="221A"/>
  <outline>
    <contour>
      <point x="448" y="-243" type="line"/>
      <point x="656" y="-243" type="line"/>
      <point x="1453" y="1333" type="line"/>
      <point x="1242" y="1333" type="line"/>
    </contour>
    <contour>
      <point x="351" y="-243" type="line"/>
      <point x="645" y="-243" type="line"/>
      <point x="558" y="-104" type="line"/>
      <point x="485" y="-104" type="line"/>
      <point x="278" y="337" type="line"/>
      <point x="74" y="337" type="line"/>
    </contour>
  </outline>
</glyph>
<glyph name="infinity" format="2">
  <advance width="2075"/>
  <unicode hex="221E"/>
  <outline>
    <contour>
      <point x="101" y="486" type="line"/>
      <point x="101" y="208"/>
      <point x="265" y="52"/>
      <point x="545" y="52" type="curve" smooth="yes"/>
      <point x="787" y="52"/>
      <point x="940" y="178"/>
      <point x="1046" y="348" type="curve"/>
      <point x="1055" y="348" type="line"/>
      <point x="1055" y="625" type="line"/>
      <point x="1046" y="625" type="line"/>
      <point x="928" y="788"/>
      <point x="787" y="922"/>
      <point x="545" y="922" type="curve" smooth="yes"/>
      <point x="267" y="922"/>
      <point x="102" y="767"/>
      <point x="101" y="491" type="curve"/>
    </contour>
    <contour>
      <point x="300" y="487" type="curve"/>
      <point x="300" y="490" type="line"/>
      <point x="301" y="656"/>
      <point x="390" y="754"/>
      <point x="555" y="754" type="curve" smooth="yes"/>
      <point x="740" y="754"/>
      <point x="859" y="632"/>
      <point x="945" y="488" type="curve"/>
      <point x="856" y="341"/>
      <point x="746" y="220"/>
      <point x="560" y="220" type="curve" smooth="yes"/>
      <point x="391" y="220"/>
      <point x="300" y="319"/>
    </contour>
    <contour>
      <point x="1974" y="486" type="curve"/>
      <point x="1974" y="491" type="line"/>
      <point x="1973" y="767"/>
      <point x="1807" y="922"/>
      <point x="1530" y="922" type="curve" smooth="yes"/>
      <point x="1285" y="922"/>
      <point x="1143" y="794"/>
      <point x="1024" y="615" type="curve"/>
      <point x="1015" y="615" type="line"/>
      <point x="1010" y="358" type="line"/>
      <point x="1019" y="358" type="line"/>
      <point x="1137" y="182"/>
      <point x="1283" y="52"/>
      <point x="1530" y="52" type="curve" smooth="yes"/>
      <point x="1809" y="52"/>
      <point x="1974" y="208"/>
    </contour>
    <contour>
      <point x="1775" y="487" type="line"/>
      <point x="1775" y="319"/>
      <point x="1684" y="220"/>
      <point x="1515" y="220" type="curve" smooth="yes"/>
      <point x="1329" y="220"/>
      <point x="1219" y="341"/>
      <point x="1130" y="487" type="curve"/>
      <point x="1217" y="632"/>
      <point x="1335" y="754"/>
      <point x="1520" y="754" type="curve" smooth="yes"/>
      <point x="1685" y="754"/>
      <point x="1774" y="656"/>
      <point x="1775" y="490" type="curve"/>
    </contour>
  </outline>
</glyph>
<glyph name="integral" format="2">
  <advance width="771"/>
  <unicode hex="222B"/>
  <outline>
    <contour>
      <point x="-133" y="-187" type="curve"/>
      <point x="-121" y="-341" type="line"/>
      <point x="-80" y="-348"/>
      <point x="-35" y="-353"/>
      <point x="11" y="-353" type="curve" smooth="yes"/>
      <point x="321" y="-353"/>
      <point x="432" y="-233"/>
      <point x="453" y="41" type="curve"/>
      <point x="523" y="953" type="line"/>
      <point x="535" y="1118"/>
      <point x="603" y="1186"/>
      <point x="804" y="1186" type="curve" smooth="yes"/>
      <point x="839" y="1186"/>
      <point x="872" y="1185"/>
      <point x="904" y="1181" type="curve"/>
      <point x="892" y="1335" type="line"/>
      <point x="851" y="1343"/>
      <point x="806" y="1347"/>
      <point x="760" y="1347" type="curve" smooth="yes"/>
      <point x="451" y="1347"/>
      <point x="339" y="1228"/>
      <point x="318" y="954" type="curve"/>
      <point x="249" y="42" type="line"/>
      <point x="236" y="-123"/>
      <point x="168" y="-192"/>
      <point x="-33" y="-192" type="curve" smooth="yes"/>
      <point x="-68" y="-192"/>
      <point x="-101" y="-190"/>
    </contour>
  </outline>
</glyph>
<glyph name="notequal" format="2">
  <advance width="1355"/>
  <unicode hex="2260"/>
  <outline>
    <contour>
      <point x="306" y="20" type="line"/>
      <point x="503" y="20" type="line"/>
      <point x="1049" y="1195" type="line"/>
      <point x="855" y="1195" type="line"/>
    </contour>
    <component base="equal" yOffset="1"/>
  </outline>
</glyph>
<glyph name="lessequal" format="2">
  <advance width="1365"/>
  <unicode hex="2264"/>
  <outline>
    <contour>
      <point x="1210" y="384" type="line"/>
      <point x="1210" y="570" type="line"/>
      <point x="313" y="761" type="line"/>
      <point x="313" y="782" type="line"/>
      <point x="1210" y="970" type="line"/>
      <point x="1210" y="1155" type="line"/>
      <point x="155" y="915" type="line"/>
      <point x="155" y="626" type="line"/>
    </contour>
    <contour>
      <point x="155" y="67" type="line"/>
      <point x="1210" y="67" type="line"/>
      <point x="1210" y="234" type="line"/>
      <point x="155" y="234" type="line"/>
    </contour>
  </outline>
</glyph>
<glyph name="greaterequal" format="2">
  <advance width="1365"/>
  <unicode hex="2265"/>
  <outline>
    <contour>
      <point x="155" y="384" type="line"/>
      <point x="1210" y="626" type="line"/>
      <point x="1210" y="915" type="line"/>
      <point x="155" y="1155" type="line"/>
      <point x="155" y="970" type="line"/>
      <point x="1052" y="782" type="line"/>
      <point x="1052" y="761" type="line"/>
      <point x="155" y="570" type="line"/>
    </contour>
    <contour>
      <point x="1210" y="67" type="line"/>
      <point x="1210" y="234" type="line"/>
      <point x="155" y="234" type="line"/>
      <point x="155" y="67" type="line"/>
    </contour>
  </outline>
</glyph>
<glyph name="lozenge" format="2">
  <advance width="1377"/>
  <unicode hex="25CA"/>
  <outline>
    <contour>
      <point x="217" y="590" type="line"/>
      <point x="816" y="1278" type="line"/>
      <point x="559" y="1278" type="line"/>
      <point x="73" y="719" type="line"/>
      <point x="73" y="560" type="line"/>
    </contour>
    <contour>
      <point x="208" y="715" type="line"/>
      <point x="73" y="560" type="line"/>
      <point x="561" y="0" type="line"/>
      <point x="816" y="0" type="line"/>
    </contour>
    <contour>
      <point x="1160" y="590" type="line"/>
      <point x="1304" y="560" type="line"/>
      <point x="1304" y="719" type="line"/>
      <point x="816" y="1278" type="line"/>
      <point x="559" y="1278" type="line"/>
    </contour>
    <contour>
      <point x="1169" y="715" type="line"/>
      <point x="561" y="0" type="line"/>
      <point x="816" y="0" type="line"/>
      <point x="1304" y="560" type="line"/>
    </contour>
  </outline>
</glyph>
<glyph name="leftanglebracketmath" format="2">
  <advance width="849"/>
  <unicode hex="27E8"/>
  <outline>
    <contour>
      <point x="375" y="545" type="line"/>
      <point x="781" y="1333" type="line"/>
      <point x="568" y="1333" type="line"/>
      <point x="168" y="572" type="line"/>
      <point x="168" y="530" type="line"/>
      <point x="568" y="-242" type="line"/>
      <point x="781" y="-242" type="line"/>
    </contour>
  </outline>
</glyph>
<glyph name="rightanglebracketmath" format="2">
  <advance width="849"/>
  <unicode hex="27E9"/>
  <outline>
    <contour>
      <point x="474" y="545" type="line"/>
      <point x="68" y="-242" type="line"/>
      <point x="281" y="-242" type="line"/>
      <point x="681" y="530" type="line"/>
      <point x="681" y="572" type="line"/>
      <point x="281" y="1333" type="line"/>
      <point x="68" y="1333" type="line"/>
    </contour>
  </outline>
</glyph>
<glyph name="__hookabovecombsmall.case" format="2">
  <advance width="601"/>
  <anchor x="234" y="958" name="_top"/>
  <outline>
    <contour>
      <point x="209" y="1047" type="curve"/>
      <point x="186" y="1154" type="line"/>
      <point x="287" y="1174"/>
      <point x="333" y="1192"/>
      <point x="333" y="1238" type="curve" smooth="yes"/>
      <point x="333" y="1270"/>
      <point x="308" y="1284"/>
      <point x="261" y="1284" type="curve" smooth="yes"/>
      <point x="207" y="1284"/>
      <point x="166" y="1273"/>
      <point x="127" y="1260" type="curve"/>
      <point x="136" y="1371" type="line"/>
      <point x="176" y="1387"/>
      <point x="232" y="1399"/>
      <point x="294" y="1399" type="curve" smooth="yes"/>
      <point x="410" y="1399"/>
      <point x="478" y="1347"/>
      <point x="478" y="1247" type="curve" smooth="yes"/>
      <point x="478" y="1132"/>
      <point x="384" y="1073"/>
    </contour>
  </outline>
</glyph>
<glyph name="__hookabovecombsmall" format="2">
  <advance width="601"/>
  <anchor x="234" y="958" name="_top"/>
  <outline>
    <contour>
      <point x="209" y="1047" type="curve"/>
      <point x="186" y="1156" type="line"/>
      <point x="284" y="1174"/>
      <point x="334" y="1195"/>
      <point x="334" y="1243" type="curve" smooth="yes"/>
      <point x="334" y="1275"/>
      <point x="309" y="1290"/>
      <point x="259" y="1290" type="curve" smooth="yes"/>
      <point x="210" y="1290"/>
      <point x="164" y="1278"/>
      <point x="127" y="1265" type="curve"/>
      <point x="136" y="1378" type="line"/>
      <point x="176" y="1394"/>
      <point x="232" y="1406"/>
      <point x="294" y="1406" type="curve" smooth="yes"/>
      <point x="410" y="1406"/>
      <point x="478" y="1353"/>
      <point x="478" y="1251" type="curve" smooth="yes"/>
      <point x="478" y="1133"/>
      <point x="383" y="1073"/>
    </contour>
  </outline>
</glyph>
<glyph name="_acutecombsmall.case" format="2">
  <advance width="701"/>
  <anchor x="195" y="958" name="_top"/>
  <outline>
    <contour>
      <point x="314" y="1327" type="line"/>
      <point x="115" y="1076" type="line"/>
      <point x="115" y="1073" type="line"/>
      <point x="286" y="1073" type="line"/>
      <point x="521" y="1322" type="line"/>
      <point x="521" y="1327" type="line"/>
    </contour>
  </outline>
</glyph>
<glyph name="_acutecombsmall" format="2">
  <advance width="701"/>
  <anchor x="192" y="958" name="_top"/>
  <outline>
    <contour>
      <point x="318" y="1347" type="line"/>
      <point x="117" y="1087" type="line"/>
      <point x="117" y="1084" type="line"/>
      <point x="286" y="1084" type="line"/>
      <point x="523" y="1343" type="line"/>
      <point x="523" y="1347" type="line"/>
    </contour>
  </outline>
</glyph>
<glyph name="_gravecombsmall.case" format="2">
  <advance width="701"/>
  <anchor x="507" y="958" name="_top"/>
  <outline>
    <contour>
      <point x="387" y="1327" type="line"/>
      <point x="180" y="1327" type="line"/>
      <point x="180" y="1322" type="line"/>
      <point x="415" y="1073" type="line"/>
      <point x="586" y="1073" type="line"/>
      <point x="586" y="1076" type="line"/>
    </contour>
  </outline>
</glyph>
<glyph name="_gravecombsmall" format="2">
  <advance width="701"/>
  <anchor x="509" y="958" name="_top"/>
  <outline>
    <contour>
      <point x="383" y="1347" type="line"/>
      <point x="178" y="1347" type="line"/>
      <point x="178" y="1343" type="line"/>
      <point x="415" y="1084" type="line"/>
      <point x="584" y="1084" type="line"/>
      <point x="584" y="1087" type="line"/>
    </contour>
  </outline>
</glyph>
<glyph name="_tildecombsmall.case" format="2">
  <advance width="909"/>
  <anchor x="455" y="958" name="_top"/>
  <outline>
    <contour>
      <point x="616" y="1117" type="curve" smooth="yes"/>
      <point x="761" y="1117"/>
      <point x="803" y="1205"/>
      <point x="803" y="1321" type="curve" smooth="yes"/>
      <point x="803" y="1345" type="line"/>
      <point x="674" y="1345" type="line"/>
      <point x="674" y="1337" type="line" smooth="yes"/>
      <point x="674" y="1281"/>
      <point x="655" y="1249"/>
      <point x="603" y="1249" type="curve" smooth="yes"/>
      <point x="510" y="1249"/>
      <point x="416" y="1332"/>
      <point x="293" y="1332" type="curve" smooth="yes"/>
      <point x="149" y="1332"/>
      <point x="107" y="1242"/>
      <point x="107" y="1129" type="curve" smooth="yes"/>
      <point x="107" y="1105" type="line"/>
      <point x="236" y="1105" type="line"/>
      <point x="236" y="1112" type="line" smooth="yes"/>
      <point x="236" y="1168"/>
      <point x="255" y="1200"/>
      <point x="305" y="1200" type="curve" smooth="yes"/>
      <point x="398" y="1200"/>
      <point x="492" y="1117"/>
    </contour>
  </outline>
</glyph>
<glyph name="_tildecombsmall" format="2">
  <advance width="909"/>
  <anchor x="455" y="958" name="_top"/>
  <outline>
    <contour>
      <point x="612" y="1124" type="curve" smooth="yes"/>
      <point x="757" y="1124"/>
      <point x="799" y="1212"/>
      <point x="799" y="1329" type="curve" smooth="yes"/>
      <point x="799" y="1361" type="line"/>
      <point x="670" y="1361" type="line"/>
      <point x="670" y="1345" type="line" smooth="yes"/>
      <point x="669" y="1294"/>
      <point x="651" y="1264"/>
      <point x="599" y="1264" type="curve" smooth="yes"/>
      <point x="508" y="1264"/>
      <point x="417" y="1341"/>
      <point x="297" y="1341" type="curve" smooth="yes"/>
      <point x="153" y="1341"/>
      <point x="111" y="1251"/>
      <point x="111" y="1137" type="curve" smooth="yes"/>
      <point x="111" y="1104" type="line"/>
      <point x="240" y="1104" type="line"/>
      <point x="240" y="1120" type="line" smooth="yes"/>
      <point x="241" y="1171"/>
      <point x="259" y="1201"/>
      <point x="309" y="1201" type="curve" smooth="yes"/>
      <point x="400" y="1201"/>
      <point x="491" y="1124"/>
    </contour>
  </outline>
</glyph>
<glyph name="brevecomb.case" format="2">
  <anchor x="452" y="1278" name="_top"/>
  <anchor x="452" y="1662" name="top"/>
  <outline>
    <contour>
      <point x="452" y="1412" type="curve" smooth="yes"/>
      <point x="686" y="1412"/>
      <point x="792" y="1516"/>
      <point x="799" y="1697" type="curve"/>
      <point x="646" y="1697" type="line"/>
      <point x="635" y="1604"/>
      <point x="572" y="1556"/>
      <point x="452" y="1556" type="curve" smooth="yes"/>
      <point x="330" y="1556"/>
      <point x="269" y="1606"/>
      <point x="258" y="1697" type="curve"/>
      <point x="105" y="1697" type="line"/>
      <point x="112" y="1516"/>
      <point x="220" y="1412"/>
    </contour>
  </outline>
</glyph>
<glyph name="brevecomb.narrow" format="2">
  <anchor x="447" y="958" name="_top"/>
  <anchor x="447" y="1348" name="top"/>
  <outline>
    <contour>
      <point x="448" y="1078" type="curve" smooth="yes"/>
      <point x="650" y="1078"/>
      <point x="733" y="1189"/>
      <point x="738" y="1387" type="curve"/>
      <point x="592" y="1387" type="line"/>
      <point x="591" y="1274"/>
      <point x="546" y="1216"/>
      <point x="448" y="1216" type="curve" smooth="yes"/>
      <point x="349" y="1216"/>
      <point x="306" y="1274"/>
      <point x="304" y="1387" type="curve"/>
      <point x="158" y="1387" type="line"/>
      <point x="162" y="1189"/>
      <point x="246" y="1078"/>
    </contour>
  </outline>
</glyph>
<glyph name="brevecomb_tildecomb.case" format="2">
  <anchor x="452" y="1278" name="_top"/>
  <anchor x="452" y="1662" name="top"/>
  <outline>
    <contour>
      <point x="611" y="1818" type="curve" smooth="yes"/>
      <point x="753" y="1818"/>
      <point x="794" y="1904"/>
      <point x="794" y="2018" type="curve" smooth="yes"/>
      <point x="794" y="2041" type="line"/>
      <point x="668" y="2041" type="line"/>
      <point x="668" y="2033" type="line" smooth="yes"/>
      <point x="668" y="1978"/>
      <point x="649" y="1947"/>
      <point x="598" y="1947" type="curve" smooth="yes"/>
      <point x="507" y="1947"/>
      <point x="415" y="2028"/>
      <point x="294" y="2028" type="curve" smooth="yes"/>
      <point x="153" y="2028"/>
      <point x="112" y="1940"/>
      <point x="112" y="1829" type="curve" smooth="yes"/>
      <point x="112" y="1806" type="line"/>
      <point x="238" y="1806" type="line"/>
      <point x="238" y="1813" type="line" smooth="yes"/>
      <point x="238" y="1868"/>
      <point x="257" y="1899"/>
      <point x="306" y="1899" type="curve" smooth="yes"/>
      <point x="397" y="1899"/>
      <point x="489" y="1818"/>
    </contour>
    <component base="brevecomb.case"/>
  </outline>
</glyph>
<glyph name="brevecomb_tildecomb" format="2">
  <anchor x="447" y="958" name="_top"/>
  <anchor x="447" y="1348" name="top"/>
  <outline>
    <contour>
      <point x="602" y="1511" type="curve" smooth="yes"/>
      <point x="744" y="1511"/>
      <point x="785" y="1597"/>
      <point x="785" y="1711" type="curve" smooth="yes"/>
      <point x="785" y="1743" type="line"/>
      <point x="659" y="1743" type="line"/>
      <point x="659" y="1727" type="line" smooth="yes"/>
      <point x="658" y="1677"/>
      <point x="640" y="1648"/>
      <point x="589" y="1648" type="curve" smooth="yes"/>
      <point x="500" y="1648"/>
      <point x="411" y="1723"/>
      <point x="293" y="1723" type="curve" smooth="yes"/>
      <point x="152" y="1723"/>
      <point x="111" y="1635"/>
      <point x="111" y="1523" type="curve" smooth="yes"/>
      <point x="111" y="1491" type="line"/>
      <point x="237" y="1491" type="line"/>
      <point x="237" y="1507" type="line" smooth="yes"/>
      <point x="238" y="1557"/>
      <point x="256" y="1586"/>
      <point x="305" y="1586" type="curve" smooth="yes"/>
      <point x="394" y="1586"/>
      <point x="483" y="1511"/>
    </contour>
    <component base="brevecomb"/>
  </outline>
</glyph>
<glyph name="breveinvertedcomb.case" format="2">
  <anchor x="452" y="1278" name="_top"/>
  <anchor x="452" y="1662" name="top"/>
  <outline>
    <contour>
      <point x="452" y="1709" type="curve" smooth="yes"/>
      <point x="220" y="1709"/>
      <point x="112" y="1605"/>
      <point x="105" y="1424" type="curve"/>
      <point x="258" y="1424" type="line"/>
      <point x="269" y="1515"/>
      <point x="330" y="1565"/>
      <point x="452" y="1565" type="curve" smooth="yes"/>
      <point x="572" y="1565"/>
      <point x="635" y="1517"/>
      <point x="646" y="1424" type="curve"/>
      <point x="799" y="1424" type="line"/>
      <point x="792" y="1605"/>
      <point x="686" y="1709"/>
    </contour>
  </outline>
</glyph>
<glyph name="breveinvertedcomb.narrow" format="2">
  <anchor x="447" y="958" name="_top"/>
  <anchor x="447" y="1348" name="top"/>
  <outline>
    <contour>
      <point x="448" y="1403" type="curve" smooth="yes"/>
      <point x="246" y="1403"/>
      <point x="162" y="1292"/>
      <point x="158" y="1094" type="curve"/>
      <point x="304" y="1094" type="line"/>
      <point x="306" y="1207"/>
      <point x="349" y="1265"/>
      <point x="448" y="1265" type="curve" smooth="yes"/>
      <point x="546" y="1265"/>
      <point x="591" y="1207"/>
      <point x="592" y="1094" type="curve"/>
      <point x="738" y="1094" type="line"/>
      <point x="733" y="1292"/>
      <point x="650" y="1403"/>
    </contour>
  </outline>
</glyph>
<glyph name="caroncomb.alt" format="2">
  <anchor x="134" y="1278" name="_topright"/>
  <outline>
    <contour>
      <point x="321" y="1278" type="curve"/>
      <point x="133" y="1278" type="line"/>
      <point x="138" y="1243"/>
      <point x="140" y="1210"/>
      <point x="140" y="1173" type="curve" smooth="yes"/>
      <point x="140" y="1043"/>
      <point x="117" y="939"/>
      <point x="58" y="840" type="curve"/>
      <point x="200" y="803" type="line"/>
      <point x="293" y="915"/>
      <point x="329" y="1034"/>
      <point x="329" y="1179" type="curve" smooth="yes"/>
      <point x="329" y="1218"/>
      <point x="324" y="1255"/>
    </contour>
  </outline>
</glyph>
<glyph name="caroncomb.case" format="2">
  <anchor x="497" y="1278" name="_top"/>
  <anchor x="497" y="1662" name="top"/>
  <outline>
    <contour>
      <point x="383" y="1424" type="line"/>
      <point x="610" y="1424" type="line"/>
      <point x="896" y="1691" type="line"/>
      <point x="896" y="1697" type="line"/>
      <point x="699" y="1697" type="line"/>
      <point x="501" y="1541" type="line"/>
      <point x="493" y="1541" type="line"/>
      <point x="294" y="1697" type="line"/>
      <point x="97" y="1697" type="line"/>
      <point x="97" y="1691" type="line"/>
    </contour>
  </outline>
</glyph>
<glyph name="circumflexcomb_tildecomb.case" format="2">
  <anchor x="499" y="1278" name="_top"/>
  <anchor x="501" y="1662" name="top"/>
  <outline>
    <contour>
      <point x="659" y="1818" type="curve" smooth="yes"/>
      <point x="801" y="1818"/>
      <point x="842" y="1904"/>
      <point x="842" y="2018" type="curve" smooth="yes"/>
      <point x="842" y="2041" type="line"/>
      <point x="716" y="2041" type="line"/>
      <point x="716" y="2033" type="line" smooth="yes"/>
      <point x="716" y="1978"/>
      <point x="697" y="1947"/>
      <point x="646" y="1947" type="curve" smooth="yes"/>
      <point x="555" y="1947"/>
      <point x="463" y="2028"/>
      <point x="342" y="2028" type="curve" smooth="yes"/>
      <point x="201" y="2028"/>
      <point x="160" y="1940"/>
      <point x="160" y="1829" type="curve" smooth="yes"/>
      <point x="160" y="1806" type="line"/>
      <point x="286" y="1806" type="line"/>
      <point x="286" y="1813" type="line" smooth="yes"/>
      <point x="286" y="1868"/>
      <point x="305" y="1899"/>
      <point x="354" y="1899" type="curve" smooth="yes"/>
      <point x="445" y="1899"/>
      <point x="537" y="1818"/>
    </contour>
    <component base="circumflexcomb.case"/>
  </outline>
</glyph>
<glyph name="circumflexcomb_tildecomb" format="2">
  <anchor x="472" y="958" name="_top"/>
  <anchor x="472" y="1346" name="top"/>
  <outline>
    <contour>
      <point x="626" y="1509" type="curve" smooth="yes"/>
      <point x="768" y="1509"/>
      <point x="809" y="1595"/>
      <point x="809" y="1709" type="curve" smooth="yes"/>
      <point x="809" y="1741" type="line"/>
      <point x="683" y="1741" type="line"/>
      <point x="683" y="1725" type="line" smooth="yes"/>
      <point x="682" y="1675"/>
      <point x="664" y="1646"/>
      <point x="613" y="1646" type="curve" smooth="yes"/>
      <point x="524" y="1646"/>
      <point x="435" y="1721"/>
      <point x="317" y="1721" type="curve" smooth="yes"/>
      <point x="176" y="1721"/>
      <point x="135" y="1633"/>
      <point x="135" y="1521" type="curve" smooth="yes"/>
      <point x="135" y="1489" type="line"/>
      <point x="261" y="1489" type="line"/>
      <point x="261" y="1505" type="line" smooth="yes"/>
      <point x="262" y="1555"/>
      <point x="280" y="1584"/>
      <point x="329" y="1584" type="curve" smooth="yes"/>
      <point x="418" y="1584"/>
      <point x="507" y="1509"/>
    </contour>
    <component base="circumflexcomb"/>
  </outline>
</glyph>
<glyph name="commaturnedabovecomb.case" format="2">
  <anchor x="238" y="1278" name="_top"/>
  <anchor x="233" y="1757" name="top"/>
  <outline>
    <contour>
      <point x="133" y="1424" type="curve"/>
      <point x="323" y="1424" type="line"/>
      <point x="320" y="1451"/>
      <point x="318" y="1476"/>
      <point x="318" y="1505" type="curve" smooth="yes"/>
      <point x="318" y="1617"/>
      <point x="341" y="1704"/>
      <point x="395" y="1790" type="curve"/>
      <point x="249" y="1827" type="line"/>
      <point x="161" y="1729"/>
      <point x="127" y="1629"/>
      <point x="127" y="1503" type="curve" smooth="yes"/>
      <point x="127" y="1475"/>
      <point x="130" y="1445"/>
    </contour>
  </outline>
</glyph>
<glyph name="dblgravecomb.case" format="2">
  <anchor x="622" y="1278" name="_top"/>
  <anchor x="441" y="1662" name="top"/>
  <outline>
    <contour>
      <point x="315" y="1697" type="line"/>
      <point x="100" y="1697" type="line"/>
      <point x="100" y="1693" type="line"/>
      <point x="352" y="1424" type="line"/>
      <point x="531" y="1424" type="line"/>
      <point x="531" y="1426" type="line"/>
    </contour>
    <contour>
      <point x="684" y="1697" type="line"/>
      <point x="470" y="1697" type="line"/>
      <point x="470" y="1693" type="line"/>
      <point x="719" y="1424" type="line"/>
      <point x="899" y="1424" type="line"/>
      <point x="899" y="1426" type="line"/>
    </contour>
  </outline>
</glyph>
<glyph name="dblgravecomb.narrow" format="2">
  <anchor x="601" y="958" name="_top"/>
  <anchor x="446" y="1349" name="top"/>
  <outline>
    <contour>
      <point x="381" y="1387" type="line"/>
      <point x="187" y="1387" type="line"/>
      <point x="187" y="1382" type="line"/>
      <point x="371" y="1094" type="line"/>
      <point x="530" y="1094" type="line"/>
      <point x="530" y="1096" type="line"/>
    </contour>
    <contour>
      <point x="705" y="1387" type="line"/>
      <point x="512" y="1387" type="line"/>
      <point x="512" y="1382" type="line"/>
      <point x="676" y="1094" type="line"/>
      <point x="836" y="1094" type="line"/>
      <point x="836" y="1096" type="line"/>
    </contour>
  </outline>
</glyph>
<glyph name="dotaccentcomb.case" format="2">
  <anchor x="230" y="1278" name="_top"/>
  <anchor x="229" y="1641" name="top"/>
  <outline>
    <contour>
      <point x="229" y="1440" type="curve" smooth="yes"/>
      <point x="314" y="1440"/>
      <point x="355" y="1480"/>
      <point x="355" y="1546" type="curve" smooth="yes"/>
      <point x="355" y="1550" type="line" smooth="yes"/>
      <point x="355" y="1615"/>
      <point x="314" y="1656"/>
      <point x="229" y="1656" type="curve" smooth="yes"/>
      <point x="146" y="1656"/>
      <point x="104" y="1615"/>
      <point x="104" y="1550" type="curve" smooth="yes"/>
      <point x="104" y="1546" type="line" smooth="yes"/>
      <point x="104" y="1480"/>
      <point x="146" y="1440"/>
    </contour>
  </outline>
</glyph>
<glyph name="dotbelowcomb.case" format="2">
  <anchor x="230" y="0" name="_bottom"/>
  <anchor x="230" y="-392" name="bottom"/>
  <outline>
    <contour>
      <point x="229" y="-364" type="curve" smooth="yes"/>
      <point x="314" y="-364"/>
      <point x="355" y="-324"/>
      <point x="355" y="-258" type="curve" smooth="yes"/>
      <point x="355" y="-254" type="line" smooth="yes"/>
      <point x="355" y="-189"/>
      <point x="314" y="-148"/>
      <point x="229" y="-148" type="curve" smooth="yes"/>
      <point x="146" y="-148"/>
      <point x="104" y="-189"/>
      <point x="104" y="-254" type="curve" smooth="yes"/>
      <point x="104" y="-258" type="line" smooth="yes"/>
      <point x="104" y="-324"/>
      <point x="146" y="-364"/>
    </contour>
  </outline>
</glyph>
<glyph name="horncomb.case" format="2">
  <anchor x="399" y="1278" name="_topright"/>
  <anchor x="496" y="1537" name="topright"/>
  <outline>
    <contour>
      <point x="151" y="1169" type="line"/>
      <point x="382" y="1197"/>
      <point x="485" y="1269"/>
      <point x="485" y="1425" type="curve" smooth="yes"/>
      <point x="485" y="1470"/>
      <point x="473" y="1508"/>
      <point x="458" y="1541" type="curve"/>
      <point x="261" y="1541" type="line"/>
      <point x="274" y="1509"/>
      <point x="285" y="1472"/>
      <point x="285" y="1434" type="curve" smooth="yes"/>
      <point x="285" y="1340"/>
      <point x="224" y="1293"/>
      <point x="100" y="1270" type="curve"/>
    </contour>
  </outline>
</glyph>
<glyph name="horncomb.case_O" format="2">
  <anchor x="108" y="1278" name="_topright"/>
  <anchor x="302" y="1537" name="topright"/>
  <outline>
    <contour>
      <point x="-72" y="1147" type="line"/>
      <point x="181" y="1176"/>
      <point x="291" y="1258"/>
      <point x="291" y="1425" type="curve" smooth="yes"/>
      <point x="291" y="1470"/>
      <point x="279" y="1508"/>
      <point x="264" y="1541" type="curve"/>
      <point x="67" y="1541" type="line"/>
      <point x="80" y="1509"/>
      <point x="91" y="1472"/>
      <point x="91" y="1434" type="curve" smooth="yes"/>
      <point x="91" y="1330"/>
      <point x="18" y="1278"/>
      <point x="-127" y="1252" type="curve"/>
    </contour>
  </outline>
</glyph>
<glyph name="horncomb_o" format="2">
  <anchor x="332" y="958" name="_topright"/>
  <anchor x="487" y="1216" name="topright"/>
  <outline>
    <contour>
      <point x="130" y="848" type="line"/>
      <point x="364" y="871"/>
      <point x="467" y="957"/>
      <point x="467" y="1106" type="curve" smooth="yes"/>
      <point x="467" y="1153"/>
      <point x="455" y="1192"/>
      <point x="440" y="1226" type="curve"/>
      <point x="245" y="1226" type="line"/>
      <point x="258" y="1192"/>
      <point x="269" y="1154"/>
      <point x="269" y="1115" type="curve" smooth="yes"/>
      <point x="269" y="1023"/>
      <point x="201" y="965"/>
      <point x="75" y="949" type="curve"/>
    </contour>
  </outline>
</glyph>
<glyph name="hungarumlautcomb.case" format="2">
  <anchor x="377" y="1278" name="_top"/>
  <anchor x="563" y="1662" name="top"/>
  <outline>
    <contour>
      <point x="684" y="1697" type="line"/>
      <point x="468" y="1426" type="line"/>
      <point x="468" y="1424" type="line"/>
      <point x="647" y="1424" type="line"/>
      <point x="899" y="1693" type="line"/>
      <point x="899" y="1697" type="line"/>
    </contour>
    <contour>
      <point x="315" y="1697" type="line"/>
      <point x="100" y="1426" type="line"/>
      <point x="100" y="1424" type="line"/>
      <point x="280" y="1424" type="line"/>
      <point x="529" y="1693" type="line"/>
      <point x="529" y="1697" type="line"/>
    </contour>
  </outline>
</glyph>
<glyph name="hungarumlautcomb.narrow" format="2">
  <anchor x="376" y="958" name="_top"/>
  <anchor x="531" y="1349" name="top"/>
  <outline>
    <contour>
      <point x="596" y="1387" type="line"/>
      <point x="447" y="1096" type="line"/>
      <point x="447" y="1094" type="line"/>
      <point x="606" y="1094" type="line"/>
      <point x="790" y="1382" type="line"/>
      <point x="790" y="1387" type="line"/>
    </contour>
    <contour>
      <point x="272" y="1387" type="line"/>
      <point x="141" y="1096" type="line"/>
      <point x="141" y="1094" type="line"/>
      <point x="301" y="1094" type="line"/>
      <point x="465" y="1382" type="line"/>
      <point x="465" y="1387" type="line"/>
    </contour>
  </outline>
</glyph>
<glyph name="ogonekcomb.case" format="2">
  <anchor x="506" y="-1" name="_ogonek"/>
  <outline>
    <contour>
      <point x="364" y="-397" type="curve" smooth="yes"/>
      <point x="419" y="-397"/>
      <point x="470" y="-389"/>
      <point x="512" y="-372" type="curve"/>
      <point x="538" y="-228" type="line"/>
      <point x="497" y="-241"/>
      <point x="458" y="-247"/>
      <point x="419" y="-247" type="curve" smooth="yes"/>
      <point x="345" y="-247"/>
      <point x="301" y="-222"/>
      <point x="301" y="-161" type="curve" smooth="yes"/>
      <point x="301" y="-160" type="line" smooth="yes"/>
      <point x="301" y="-91"/>
      <point x="365" y="-48"/>
      <point x="468" y="-6" type="curve"/>
      <point x="458" y="-5" type="line"/>
      <point x="320" y="3" type="line"/>
      <point x="320" y="-12" type="line"/>
      <point x="198" y="-54"/>
      <point x="135" y="-118"/>
      <point x="135" y="-222" type="curve" smooth="yes"/>
      <point x="135" y="-224" type="line" smooth="yes"/>
      <point x="135" y="-341"/>
      <point x="224" y="-397"/>
    </contour>
  </outline>
</glyph>
<glyph name="periodcentered.loclCAT.case" format="2">
  <outline>
    <contour>
      <point x="-389" y="638" type="curve" smooth="yes"/>
      <point x="-305" y="638"/>
      <point x="-265" y="679"/>
      <point x="-265" y="747" type="curve" smooth="yes"/>
      <point x="-265" y="752" type="line" smooth="yes"/>
      <point x="-265" y="819"/>
      <point x="-305" y="862"/>
      <point x="-389" y="862" type="curve" smooth="yes"/>
      <point x="-472" y="862"/>
      <point x="-513" y="819"/>
      <point x="-513" y="752" type="curve" smooth="yes"/>
      <point x="-513" y="747" type="line" smooth="yes"/>
      <point x="-513" y="679"/>
      <point x="-472" y="638"/>
    </contour>
  </outline>
</glyph>
<glyph name="periodcentered.loclCAT" format="2">
  <advance width="133"/>
  <outline>
    <contour>
      <point x="66" y="601" type="curve" smooth="yes"/>
      <point x="147" y="601"/>
      <point x="186" y="642"/>
      <point x="186" y="710" type="curve" smooth="yes"/>
      <point x="186" y="715" type="line" smooth="yes"/>
      <point x="186" y="782"/>
      <point x="147" y="825"/>
      <point x="66" y="825" type="curve" smooth="yes"/>
      <point x="-13" y="825"/>
      <point x="-53" y="782"/>
      <point x="-53" y="715" type="curve" smooth="yes"/>
      <point x="-53" y="710" type="line" smooth="yes"/>
      <point x="-53" y="642"/>
      <point x="-13" y="601"/>
    </contour>
  </outline>
</glyph>
